<?xml version="1.0" encoding="UTF-8"?>
<svg version="1.1" xmlns="http://www.w3.org/2000/svg" width="1024" height="1024">
<path d="M0 0 C337.92 0 675.84 0 1024 0 C1024 337.92 1024 675.84 1024 1024 C686.08 1024 348.16 1024 0 1024 C0 686.08 0 348.16 0 0 Z " fill="#F9A01C" transform="translate(0,0)"/>
<path d="M0 0 C1.19068588 -0.0199704 1.19068588 -0.0199704 2.40542603 -0.04034424 C4.07780754 -0.06051098 5.75034859 -0.06998094 7.42285156 -0.06933594 C9.96432059 -0.07808287 12.49882246 -0.15074913 15.0390625 -0.2265625 C26.88337988 -0.38991477 26.88337988 -0.38991477 31.38085938 2.3894043 C33.34041994 4.38127287 34.96631226 6.41196029 36.6015625 8.671875 C45.69118199 15.7679123 57.14314108 18.93142667 68.6015625 17.671875 C77.37730727 16.25452726 87.14669326 13.46373 93.38232422 6.75640869 C97.58794803 2.36586361 100.65370063 0.14843953 106.8137207 -0.25219727 C109.17686128 -0.25765457 111.54038399 -0.21942639 113.90234375 -0.14453125 C115.17393845 -0.13558334 116.44553314 -0.12663544 117.75566101 -0.11741638 C121.12813311 -0.0858449 124.49617275 -0.01930813 127.86749268 0.06427002 C131.22970603 0.13837087 134.59223845 0.16307621 137.95507812 0.19335938 C182.92689198 0.6957227 222.7955256 4.28209818 259.6015625 32.671875 C260.58125 33.40921875 261.5609375 34.1465625 262.5703125 34.90625 C282.47166009 50.47612782 296.60789441 69.66291823 308.6015625 91.671875 C309.10751953 92.58952637 309.61347656 93.50717773 310.13476562 94.45263672 C315.62470848 104.45460509 320.8394551 114.47574043 324.8515625 125.171875 C325.1393457 125.93048828 325.42712891 126.68910156 325.72363281 127.47070312 C327.32548579 131.99334267 328.00554706 135.81200098 327.6015625 140.671875 C326.08113722 143.71272555 324.88901553 145.17629736 321.68359375 146.41015625 C316.85206455 147.39356485 313.73985174 146.59597087 309.4765625 144.171875 C303.52852495 140.18200128 299.00162743 135.30847504 294.3515625 129.921875 C278.48575276 111.65856513 255.45879125 91.89478711 230.32714844 89.45068359 C227.93516281 89.33372217 225.55886283 89.29207147 223.1640625 89.296875 C221.90783081 89.29929199 221.90783081 89.29929199 220.6262207 89.30175781 C214.49874709 89.423769 209.80478321 90.27847019 204.6015625 93.671875 C203.5703125 94.1875 202.5390625 94.703125 201.4765625 95.234375 C192.9819865 102.43629813 189.16056781 112.94090231 187.6015625 123.671875 C187.50573131 125.93631316 187.45841227 128.20308865 187.44766235 130.4695282 C187.4432801 131.12842901 187.43889785 131.78732981 187.4343828 132.46619731 C187.42109334 134.66065482 187.41483835 136.85507227 187.40869141 139.04956055 C187.40078273 140.62863848 187.39251332 142.20771464 187.38391113 143.78678894 C187.35778234 148.96070654 187.34239394 154.13463187 187.328125 159.30859375 C187.3227618 161.09449582 187.31738429 162.88039784 187.31199265 164.66629982 C187.2903785 172.09794636 187.27164365 179.52959081 187.26037025 186.9612608 C187.24414001 197.58795553 187.2109679 208.21428421 187.15396941 218.840841 C187.11519564 226.32642223 187.09572886 233.81190585 187.09044969 241.29758483 C187.0868068 245.76205555 187.07489883 250.22613501 187.04234695 254.69049644 C187.0121344 258.89398319 187.00600098 263.09684459 187.01773071 267.30041695 C187.01795034 268.83581761 187.00973773 270.37124844 186.99207687 271.90654755 C186.90227889 280.16816393 187.38836363 286.9436169 191.43066978 294.34071064 C193.77979098 299.01764434 193.79474718 303.86447261 194.01879883 309.02197266 C194.05161327 309.75332806 194.08442772 310.48468346 194.11823654 311.23820114 C194.22711667 313.68729717 194.33036858 316.13659709 194.43359375 318.5859375 C194.51067454 320.34837159 194.58807022 322.11079194 194.66575623 323.87319946 C194.8762837 328.67556251 195.0816313 333.47813391 195.28565979 338.28077698 C195.41415994 341.29916382 195.54384726 344.31749727 195.6739502 347.33581543 C196.1805675 359.09061663 196.68065397 370.84568229 197.17609215 382.60095978 C197.50749232 390.45968749 197.84259497 398.31825143 198.17919922 406.17675781 C198.65453934 417.28182113 199.1214112 428.38722007 199.58309937 439.49285889 C199.75949639 443.73162357 199.93864745 447.97025735 200.12026978 452.20880127 C201.75592515 490.48871459 201.75592515 490.48871459 201.93694305 507.53740692 C201.9599728 509.45108746 202.00086733 511.36452775 202.0425415 513.27789307 C202.0680288 521.1272838 201.05851942 526.37217734 196.03125 532.625 C186.27888435 540.76013919 176.13874987 541.2759487 163.97265625 541.203125 C162.37182887 541.20582572 160.7710031 541.20971294 159.17018127 541.21472168 C155.8308231 541.22058785 152.49189563 541.2121467 149.15258789 541.19335938 C144.89360299 541.17055248 140.63562569 541.18372156 136.37667751 541.20764923 C133.0761621 541.22217 129.77588183 541.217473 126.47535896 541.20713806 C124.90583232 541.20448903 123.33628361 541.20767561 121.76678276 541.21705627 C109.77341789 541.27303572 101.29479534 539.81078249 92.26171875 531.40625 C86.65380473 525.54762924 86.42822016 519.80960443 86.46582031 512.04052734 C86.46845509 511.16311575 86.47108986 510.28570415 86.47380447 509.38170433 C86.56019113 497.83214223 87.18337659 486.3059273 87.7734375 474.7734375 C87.89734641 472.27729917 88.02080938 469.78113868 88.14385986 467.28495789 C88.50586013 459.97250376 88.87565027 452.66045792 89.24734497 445.34849215 C89.42153959 441.91931214 89.59503733 438.4900969 89.76855469 435.06088257 C89.80308416 434.3786535 89.83761363 433.69642443 89.87318945 432.99352175 C90.04782859 429.54287106 90.22239542 426.09221672 90.39688873 422.64155865 C90.43141946 421.95872108 90.46595019 421.27588351 90.50152731 420.5723539 C90.57118468 419.19475403 90.64082867 417.81715348 90.71045923 416.43955225 C90.88423172 413.00242155 91.05835744 409.56530939 91.23320007 406.12823296 C92.07185895 389.63693166 92.8642002 373.1448326 93.55893707 356.64677429 C93.78926325 351.23306849 94.03277525 345.8199391 94.2767601 340.40683365 C94.49406111 335.54933794 94.68933115 330.69163593 94.86750412 325.83255672 C94.98159432 322.87317235 95.11769095 319.91509956 95.25997162 316.95694923 C95.34658082 315.02148253 95.40667618 313.08488217 95.46514893 311.14836121 C95.80066255 304.65095492 96.86680197 299.69918798 99.61260986 293.78012085 C103.12811481 285.54810136 103.45434288 277.83810607 103.37792969 269.01293945 C103.3860847 267.40458766 103.39678156 265.7962471 103.40979004 264.18792725 C103.43686432 259.86761359 103.42665733 255.54817102 103.40751553 251.22784448 C103.39218682 246.68110546 103.40645 242.13443461 103.41583252 237.58769226 C103.42670536 229.95961282 103.41247315 222.33188354 103.38378906 214.70385742 C103.35110824 205.91198615 103.36174906 197.12094931 103.3947475 188.32909805 C103.42205686 180.74643305 103.42577906 173.16401783 103.41011548 165.58131951 C103.40081028 161.06723534 103.39937846 156.55354233 103.41933441 152.03948402 C103.43678799 147.79626383 103.4244275 143.55411069 103.38996887 139.31100464 C103.38210069 137.76315766 103.38420084 136.21521935 103.39754486 134.6674099 C103.48178265 123.89571256 101.95055538 114.90450815 94.71714401 106.47615528 C86.91368618 98.66732307 75.66650407 95.5663647 64.9140625 95.421875 C53.60167059 95.55136128 44.82194029 99.09459098 35.6015625 105.671875 C34.97399048 106.54839722 34.97399048 106.54839722 34.33374023 107.44262695 C31.4677799 111.27771964 29.48799427 112.53024431 24.67456055 113.29931641 C20.64509539 113.54635784 16.62933941 113.51965197 12.5949707 113.41967773 C10.04168346 113.35943684 7.49335065 113.35811088 4.93945312 113.36523438 C3.30465108 113.34982692 1.66987652 113.33106026 0.03515625 113.30859375 C-0.72124649 113.30727951 -1.47764923 113.30596527 -2.25697327 113.30461121 C-7.35407498 113.14630013 -10.4407034 112.14583358 -14.3984375 108.671875 C-17.59940802 103.62634042 -17.8294985 99.52639514 -17.78662109 93.74829102 C-17.79187805 92.87108398 -17.79713501 91.99387695 -17.80255127 91.09008789 C-17.81571205 88.2018024 -17.80702629 85.31407197 -17.796875 82.42578125 C-17.79889704 80.41088251 -17.80180957 78.39598449 -17.80557251 76.38108826 C-17.80999071 72.16210957 -17.80358164 67.9433217 -17.78955078 63.72436523 C-17.7724703 58.32632258 -17.7822962 52.92872782 -17.80026817 47.53070164 C-17.81112896 43.37074941 -17.80764893 39.21090266 -17.7998848 35.05094719 C-17.79788857 33.06110518 -17.80032172 31.07125349 -17.80732346 29.08142281 C-17.81497443 26.29564318 -17.80328221 23.51058003 -17.78662109 20.72485352 C-17.79269379 19.90852951 -17.79876648 19.09220551 -17.80502319 18.25114441 C-17.74705097 12.99741129 -16.87932559 9.33090538 -14.3984375 4.671875 C-9.91805616 0.64092857 -5.83261098 0.03446681 0 0 Z " fill="#01323C" transform="translate(605.3984375,257.328125)"/>
<path d="M0 0 C1.04414063 0.50273437 2.08828125 1.00546875 3.1640625 1.5234375 C29.70052393 15.01333317 48.95619411 39.05348837 58.38623047 67.08984375 C61.76645484 77.60968285 63.16402884 87.74807965 63.09765625 98.75 C63.09553383 100.09807739 63.09553383 100.09807739 63.09336853 101.47338867 C63.08781583 104.31562775 63.07527237 107.15778513 63.0625 110 C63.05747888 111.93880094 63.05291705 113.87760312 63.04882812 115.81640625 C63.03786194 120.54430183 63.02063044 125.27213711 63 130 C64.58868896 129.97643433 64.58868896 129.97643433 66.20947266 129.95239258 C70.15666026 129.89789878 74.10381489 129.86357954 78.05126953 129.83520508 C79.75640463 129.82016262 81.46150132 129.79972347 83.16650391 129.77368164 C85.62412012 129.73709716 88.08122269 129.72022827 90.5390625 129.70703125 C91.29555084 129.69154739 92.05203918 129.67606354 92.83145142 129.66011047 C97.62793458 129.65860158 100.83025154 130.38514481 105 133 C110.27517105 138.3950613 111.94645381 143.55224074 112.96142578 150.89428711 C113.12144073 152.0324437 113.28145569 153.17060028 113.44631958 154.34324646 C113.61098724 155.55899857 113.77565491 156.77475067 113.9453125 158.02734375 C114.12005096 159.28962296 114.29478943 160.55190216 114.474823 161.85243225 C114.8422978 164.51741204 115.20749357 167.18258412 115.56884766 169.84838867 C116.03015907 173.2496709 116.50080373 176.64958146 116.97441292 180.04917049 C117.42781394 183.3120752 117.87378068 186.57599301 118.3203125 189.83984375 C118.48902863 191.05357162 118.65774475 192.2672995 118.83157349 193.51780701 C119.25687198 196.67566853 119.64506972 199.83353856 120 203 C120.13424126 204.0787867 120.13424126 204.0787867 120.27119446 205.17936707 C120.52342155 208.60333458 120.02728662 209.96208914 117.99975586 212.77905273 C117.08073486 213.65505127 116.16171387 214.5310498 115.21484375 215.43359375 C114.47398277 216.15604027 114.47398277 216.15604027 113.71815491 216.89308167 C112.14036013 218.42530511 110.54044279 219.9316467 108.9375 221.4375 C107.36891221 222.94076021 105.80532552 224.44906977 104.24258423 225.95840454 C103.23133977 226.93486418 102.21815994 227.90932382 101.20297241 228.88168335 C97.21834689 232.71880679 93.5249112 236.73960326 90 241 C87.92279854 237.48296603 87.42182499 234.17269768 86.85498047 230.15185547 C86.75715271 229.47173401 86.65932495 228.79161255 86.55853271 228.09088135 C86.23802498 225.85054774 85.9275078 223.608953 85.6171875 221.3671875 C85.39641491 219.80819738 85.17506267 218.24928924 84.95315552 216.69046021 C84.49011538 213.42784329 84.03156583 210.16463982 83.57666016 206.90087891 C82.99285127 202.71229475 82.40179589 198.52477732 81.80788994 194.33761406 C81.24213423 190.34778009 80.67930783 186.35753508 80.1171875 182.3671875 C80.0094891 181.60347713 79.9017907 180.83976677 79.7908287 180.05291367 C79.48771157 177.89861233 79.18660235 175.74404108 78.88623047 173.58935547 C78.71461395 172.36231903 78.54299744 171.13528259 78.36618042 169.87106323 C78 167 78 167 78 165 C-3.18 165 -84.36 165 -168 165 C-168.33 170.61 -168.66 176.22 -169 182 C-169.38319623 185.33847961 -169.78885526 188.62031225 -170.3046875 191.93359375 C-170.4293338 192.78011002 -170.5539801 193.62662628 -170.68240356 194.49879456 C-171.07301202 197.14611835 -171.47310102 199.79186899 -171.875 202.4375 C-173.53342089 213.44970532 -175.09369408 224.45524235 -176.33203125 235.5234375 C-177.6679973 247.44223105 -179.16951767 259.33624313 -180.70703125 271.23046875 C-180.89187734 272.66084756 -180.89187734 272.66084756 -181.08045769 274.12012291 C-181.85523708 280.11110028 -182.63266437 286.10173213 -183.41071701 292.09228516 C-184.08962987 297.32242488 -184.76661459 302.55281407 -185.44360352 307.78320312 C-185.57765437 308.8188698 -185.71170523 309.85453648 -185.84981823 310.92158699 C-186.11841262 312.99678679 -186.38699757 315.07198782 -186.65557289 317.14719009 C-187.05196884 320.20946628 -187.44859663 323.27171238 -187.84526062 326.33395386 C-189.61147073 339.97280021 -191.36008374 353.61375605 -193.08972168 367.2572937 C-194.86029158 381.22065179 -196.67322292 395.17718096 -198.5625 409.125 C-198.66282532 409.86683533 -198.76315063 410.60867065 -198.86651611 411.37298584 C-199.91291719 419.10400565 -200.97375556 426.83278908 -202.06129456 434.55813599 C-202.53550039 437.93386505 -203.00411516 441.31035943 -203.47213745 444.68695068 C-203.69517017 446.28455524 -203.92092168 447.88178314 -204.14968872 449.47857666 C-206.35014001 464.84006283 -208.22090798 478.68037718 -198.65234375 491.96875 C-192.63870569 499.36140199 -184.94703702 503.01765433 -176 506 C-174.53074745 506.09306295 -173.05764232 506.13087 -171.58544922 506.13422108 C-170.67709352 506.13867892 -169.76873781 506.14313676 -168.83285618 506.14772969 C-167.83356051 506.14754533 -166.83426485 506.14736097 -165.8046875 506.14717102 C-164.21377367 506.15268605 -164.21377367 506.15268605 -162.59072018 506.1583125 C-159.01880862 506.16936988 -155.44692613 506.1731967 -151.875 506.17700195 C-149.32100837 506.18326515 -146.76701766 506.18991182 -144.21302795 506.19691467 C-136.53451538 506.21615872 -128.8560079 506.22674655 -121.17747736 506.23564246 C-117.55971344 506.24002667 -113.94195099 506.24539325 -110.32418823 506.25063133 C-98.2938009 506.26764579 -86.26341448 506.28213827 -74.23301697 506.28938007 C-71.11091104 506.29128992 -67.98880512 506.29321025 -64.86669922 506.29516602 C-63.70274641 506.29589163 -63.70274641 506.29589163 -62.51527941 506.2966319 C-49.9551615 506.3049258 -37.39513902 506.33025089 -24.83506274 506.36274669 C-11.93356116 506.39585297 0.96789199 506.41383217 13.86943626 506.41702431 C21.11052745 506.41918643 28.35147958 506.42789092 35.5925293 506.45348549 C42.40839914 506.47752164 49.2240154 506.48099576 56.0399189 506.47072411 C58.53799839 506.47022882 61.03609021 506.4765471 63.534132 506.49028015 C66.95265866 506.50801779 70.37029037 506.50088263 73.78881836 506.48774719 C74.77026825 506.49871644 75.75171814 506.50968568 76.76290894 506.52098733 C87.84476824 506.41865152 96.98327813 502.65659569 105 495 C112.32554397 487.13485123 116.31943933 477.00345352 116.19851685 466.2890625 C115.79286632 459.56817222 114.72880985 452.91906329 113.74708366 446.26217651 C113.33331646 443.45572751 112.92834936 440.64812758 112.52552795 437.84008789 C111.67066849 431.89224722 110.80464622 425.94605985 109.9375 420 C108.92899067 413.07952988 107.92505727 406.15844574 106.93130684 399.23583984 C106.53150656 396.46633669 106.12406923 393.69802593 105.71629333 390.9296875 C105.47318093 389.2435415 105.23040987 387.55734623 104.98803711 385.87109375 C104.87223297 385.09918198 104.75642883 384.3272702 104.63711548 383.53196716 C103.8861781 378.2276438 103.8861781 378.2276438 105 376 C105.49886719 376.43570312 105.99773437 376.87140625 106.51171875 377.3203125 C116.58557558 385.67600703 127.12145794 389.48694204 139.859375 391.45703125 C143 392 143 392 144 393 C144.36036924 394.9540505 144.66173548 396.9190101 144.93969727 398.88647461 C145.20986412 400.78126808 145.20986412 400.78126808 145.48548889 402.71434021 C145.67958388 404.11027808 145.87321025 405.50628118 146.06640625 406.90234375 C146.26673972 408.33753223 146.46709301 409.77271793 146.66746521 411.207901 C147.08847698 414.23312698 147.50556251 417.25886855 147.9206543 420.28491211 C148.34276873 423.35731593 148.77248308 426.42849112 149.2097168 429.4987793 C157.3193389 486.4916504 157.3193389 486.4916504 140.1953125 512.140625 C127.62185428 528.51744246 110.56831015 539.57130957 90 543 C86.34429207 543.26889895 82.70529412 543.27473936 79.0408783 543.26069641 C77.97050325 543.26452196 76.90012821 543.26834751 75.79731756 543.27228898 C72.22802758 543.28256754 68.65890002 543.27863652 65.08959961 543.2746582 C62.52313082 543.27900764 59.95666332 543.28419156 57.39019775 543.29014587 C51.15160799 543.30286613 44.91306131 543.30468973 38.67446076 543.30234561 C33.59805344 543.3005585 28.52165914 543.30232052 23.44525337 543.30657005 C22.35913183 543.30746284 22.35913183 543.30746284 21.25106843 543.30837366 C19.77976294 543.3095855 18.30845744 543.31079963 16.83715195 543.31201603 C3.0510736 543.32288228 -10.73498026 543.32073402 -24.52105998 543.31463119 C-37.10327001 543.30946865 -49.68540246 543.32070156 -62.26759715 543.33972941 C-75.21338871 543.35915557 -88.15914367 543.36735509 -101.10494989 543.36360615 C-108.36228547 543.36170059 -115.61955513 543.3641179 -122.87687874 543.37832069 C-129.70841746 543.39155562 -136.53979941 543.38890981 -143.37133789 543.37590981 C-145.86892691 543.37355447 -148.36652695 543.37624098 -150.86410332 543.38453293 C-175.78160673 543.4612473 -202.0278216 541.41812126 -221.1875 523.4375 C-235.19529832 508.57391979 -243.26551469 489.18840407 -243.203125 468.703125 C-243.20095474 467.92224014 -243.19878448 467.14135529 -243.19654846 466.33680725 C-243.09189141 457.62117904 -242.07019548 449.06954082 -240.9375 440.4375 C-240.7106977 438.64703389 -240.48439494 436.85650445 -240.25854492 435.06591797 C-238.45426127 420.91206148 -236.43150957 406.78943456 -234.3838501 392.6690979 C-231.50596874 372.81925511 -228.79764076 352.94842929 -226.13964462 333.06816864 C-225.81940741 330.67658566 -225.49777981 328.28519394 -225.1756897 325.89385986 C-222.73272766 307.74425273 -220.44971074 289.58701281 -218.40626526 271.38796997 C-216.98500973 258.74104114 -215.40905728 246.11786673 -213.75 233.5 C-213.60581635 232.40096344 -213.46163269 231.30192688 -213.31307983 230.16958618 C-212.69788509 225.48292534 -212.08174937 220.79639367 -211.46220398 216.11030579 C-210.528161 209.04209712 -209.60837804 201.97226309 -208.70277596 194.90036964 C-208.00686388 189.47043983 -207.30064192 184.04190932 -206.58736992 178.61423302 C-206.15828865 175.34635731 -205.73525318 172.07788886 -205.32092285 168.80810547 C-204.85840461 165.1658184 -204.37847053 161.52621298 -203.89453125 157.88671875 C-203.69634544 156.27774971 -203.69634544 156.27774971 -203.49415588 154.63627625 C-202.4702902 147.12988969 -200.99696345 139.33859902 -195.125 134.0625 C-189.54691332 130.38096279 -184.54752553 129.70952074 -177.9765625 129.8046875 C-176.85729874 129.80893234 -176.85729874 129.80893234 -175.71542358 129.81326294 C-173.35178012 129.82438313 -170.98852732 129.84947179 -168.625 129.875 C-167.01432842 129.88504038 -165.40365085 129.89416438 -163.79296875 129.90234375 C-159.86183056 129.9242956 -155.93098133 129.95876815 -152 130 C-152.01571045 128.91283691 -152.0314209 127.82567383 -152.04760742 126.70556641 C-152.10289385 122.57918032 -152.13669952 118.45282503 -152.16479492 114.32617188 C-152.17966123 112.55756077 -152.19996029 110.78898498 -152.22631836 109.02050781 C-152.73270246 74.109792 -142.1877287 45.27387886 -118 20 C-117.24332031 19.16855469 -116.48664063 18.33710938 -115.70703125 17.48046875 C-87.4803833 -12.4959551 -36.14183474 -17.72435183 0 0 Z " fill="#02323B" transform="translate(336,259)"/>
<path d="M0 0 C4.10538921 2.09001632 6.27811913 3.76448055 8 8 C8.71484471 11.6627884 8.41060269 14.12208567 8 18 C-0.10876913 28.42556031 -9.66071618 37.66071618 -19 47 C34.46 47 87.92 47 143 47 C134.75 38.75 126.5 30.5 118 22 C114.4 14.8 114.4 14.8 115 10 C116.25343514 6.6355162 117.40459348 4.54127865 120.0625 2.125 C124.62239589 0.37865689 128.2035172 -0.06564595 133 1 C141.05510451 6.28010233 147.87368214 13.58924421 154.62890625 20.3984375 C155.59451717 21.36524509 156.56050309 22.33167827 157.52684021 23.29776001 C159.52728418 25.29974997 161.52437961 27.30499663 163.51879883 29.31298828 C166.07230942 31.88365998 168.63252767 34.44752547 171.19500828 37.00925255 C173.17956167 38.99407761 175.16150122 40.98149508 177.14256096 42.96980667 C178.54306579 44.37501859 179.9450512 45.77875438 181.34706116 47.1824646 C182.19231857 48.03410187 183.03757599 48.88573914 183.90844727 49.76318359 C184.65248306 50.51103119 185.39651886 51.25887878 186.1631012 52.02938843 C188.76474877 54.82041688 189.94019286 56.4717036 190.375 60.3125 C189.53061323 68.61563659 182.24825688 73.99809349 176.59765625 79.5625 C175.19988316 80.95232459 173.80211269 82.34215182 172.40449429 83.73213196 C170.45509417 85.66845166 168.50116852 87.60017248 166.54718018 89.53186035 C163.13036506 92.9106094 159.71834212 96.29418069 156.30992126 99.68139648 C154.49854611 101.48058935 152.68450412 103.27710243 150.8674469 105.07055664 C146.67390973 109.2310003 142.72300924 113.41675497 139 118 C134.62156148 121.86931776 131.09544009 122.6883688 125.40625 122.45703125 C120.76008267 121.57456116 118.38456652 118.88804526 115.625 115.125 C114.65586696 111.82994765 114.5993644 109.43401944 115 106 C120 98 120 98 143 75 C89.54 75 36.08 75 -19 75 C-11.41 82.59 -3.82 90.18 4 98 C7.99964653 103.9994698 9.21014925 106.24736721 8 113 C6.01683234 116.82468048 3.92472523 120.09067421 0 122 C-6.46545589 123.00134212 -9.66196576 121.82698863 -15 118 C-16.75215537 116.42616525 -18.46167855 114.80390776 -20.1315918 113.14306641 C-20.84256516 112.43975945 -20.84256516 112.43975945 -21.56790161 111.72224426 C-23.11682531 110.18710189 -24.65832877 108.64476552 -26.19921875 107.1015625 C-27.28183086 106.0228426 -28.36466435 104.94434485 -29.44770813 103.86605835 C-31.70951871 101.61168457 -33.96744771 99.35350742 -36.22290039 97.09277344 C-39.10605688 94.20381481 -42.00043891 91.32640183 -44.89805889 88.45195961 C-47.13470962 86.23007345 -49.36436018 84.00126383 -51.59208107 81.7704277 C-52.65621143 80.70680883 -53.72269078 79.64553446 -54.79160118 78.58671951 C-56.28723955 77.10348601 -57.77293814 75.61093175 -59.2565918 74.11572266 C-60.10231247 73.27063141 -60.94803314 72.42554016 -61.81938171 71.55484009 C-64.96506186 67.86932126 -66.87606104 64.61120646 -67.25 59.75 C-64.13639627 50.4091888 -54.00234585 42.84331935 -47.14453125 35.9765625 C-46.23926193 35.06796478 -45.33399261 34.15936707 -44.40129089 33.22323608 C-42.50470941 31.32073413 -40.60614213 29.42024051 -38.70629883 27.52099609 C-36.28393585 25.0987355 -33.86857681 22.66961502 -31.45483875 20.23876381 C-29.12675212 17.89685303 -26.79144611 15.56216273 -24.45703125 13.2265625 C-23.59753372 12.35987946 -22.73803619 11.49319641 -21.85249329 10.60025024 C-9.50505516 -1.70036765 -9.50505516 -1.70036765 0 0 Z " fill="#03313B" transform="translate(474,498)"/>
<path d="M0 0 C13.92561134 11.88404795 21.42762162 26.35007854 25.34375 43.97265625 C25.34375 58.16265625 25.34375 72.35265625 25.34375 86.97265625 C-21.18625 86.97265625 -67.71625 86.97265625 -115.65625 86.97265625 C-115.65625 37.08537358 -115.65625 37.08537358 -108.09375 22.78515625 C-107.75569336 22.13208496 -107.41763672 21.47901367 -107.06933594 20.80615234 C-97.27001142 2.7235423 -81.37598358 -9.86321551 -61.8359375 -15.8984375 C-40.57050662 -20.85581287 -16.94842943 -12.93563952 0 0 Z " fill="#F9A11D" transform="translate(336.65625,302.02734375)"/>
<path d="M0 0 C0.33 0 0.66 0 1 0 C1 24.42 1 48.84 1 74 C-23.42 74 -47.84 74 -73 74 C-73 73.67 -73 73.34 -73 73 C-72.00742187 72.78085937 -71.01484375 72.56171875 -69.9921875 72.3359375 C-45.8043051 66.78594738 -26.17250392 54.81270638 -12.43261719 33.83398438 C-5.91886991 23.38034299 -2.32060584 12.07122162 0 0 Z " fill="#000000" transform="translate(1023,950)"/>
<path d="M0 0 C0.33 0 0.66 0 1 0 C1.21914063 0.99257813 1.43828125 1.98515625 1.6640625 3.0078125 C7.21405262 27.1956949 19.18729362 46.82749608 40.16601562 60.56738281 C50.61965701 67.08113009 61.92877838 70.67939416 74 73 C74 73.33 74 73.66 74 74 C49.58 74 25.16 74 0 74 C0 49.58 0 25.16 0 0 Z " fill="#000000" transform="translate(0,950)"/>
<path d="M0 0 C24.42 0 48.84 0 74 0 C74 24.42 74 48.84 74 74 C73.67 74 73.34 74 73 74 C72.78085937 73.00742188 72.56171875 72.01484375 72.3359375 70.9921875 C66.78594738 46.8043051 54.81270638 27.17250392 33.83398438 13.43261719 C23.38034299 6.91886991 12.07122162 3.32060584 0 1 C0 0.67 0 0.34 0 0 Z " fill="#000000" transform="translate(950,0)"/>
<path d="M0 0 C24.42 0 48.84 0 74 0 C74 0.33 74 0.66 74 1 C73.00742188 1.21914063 72.01484375 1.43828125 70.9921875 1.6640625 C46.8043051 7.21405262 27.17250392 19.18729362 13.43261719 40.16601562 C6.91886991 50.61965701 3.32060584 61.92877838 1 74 C0.67 74 0.34 74 0 74 C0 49.58 0 25.16 0 0 Z " fill="#000000" transform="translate(0,0)"/>
<path d="M0 0 C54.12 0 108.24 0 164 0 C162.02 2.31 160.04 4.62 158 7 C157.67 6.34 157.34 5.68 157 5 C108.16 5.33 59.32 5.66 9 6 C11.97 6.33 14.94 6.66 18 7 C18 7.66 18 8.32 18 9 C14.87950147 10.01065792 12.26504067 10.46573403 9 10 C5.48492478 7.42966722 2.68719951 4.41776203 0 1 C0 0.67 0 0.34 0 0 Z " fill="#F1A328" transform="translate(454,572)"/>
<path d="M0 0 C5.97734909 4.95544138 11.46187935 10.31189552 16.9375 15.8125 C18.24944336 17.11864258 18.24944336 17.11864258 19.58789062 18.45117188 C20.41353516 19.27810547 21.23917969 20.10503906 22.08984375 20.95703125 C22.84128662 21.70960205 23.59272949 22.46217285 24.36694336 23.23754883 C26 25 26 25 26 26 C-28.12 26 -82.24 26 -138 26 C-132 19 -132 19 -129 17 C-129 18.65 -129 20.3 -129 22 C-128.34 21.67 -127.68 21.34 -127 21 C-125.16738834 20.90223751 -123.33118663 20.86930071 -121.49597168 20.86628723 C-119.74183205 20.85988976 -119.74183205 20.85988976 -117.95225525 20.85336304 C-116.66283524 20.85381622 -115.37341522 20.85426941 -114.04492188 20.85473633 C-112.67843025 20.85174544 -111.31193948 20.84834307 -109.94544983 20.84455872 C-106.22860586 20.83570843 -102.5117849 20.8333802 -98.79493141 20.83274293 C-95.69581276 20.83179478 -92.5966995 20.82811765 -89.49758291 20.82457083 C-82.18897829 20.81642274 -74.88038599 20.81398696 -67.57177734 20.81469727 C-60.02253079 20.8152985 -52.47335559 20.8047384 -44.9241271 20.7889536 C-38.45022033 20.77589761 -31.97633693 20.77051253 -25.50241709 20.77115268 C-21.63244019 20.77140819 -17.7625267 20.76852756 -13.89256287 20.75797462 C-10.25481159 20.74832593 -6.61718479 20.74819208 -2.97942924 20.75549126 C-1.00219499 20.7570431 0.97503916 20.74866831 2.95225525 20.74005127 C4.12168167 20.74424576 5.29110809 20.74844025 6.49597168 20.75276184 C8.02686054 20.75194469 8.02686054 20.75194469 9.58867645 20.75111103 C12 21 12 21 14 23 C-34.84 23.33 -83.68 23.66 -134 24 C-82.52 24 -31.04 24 22 24 C14.74 16.74 7.48 9.48 0 2 C0 1.34 0 0.68 0 0 Z " fill="#F5B134" transform="translate(592,520)"/>
<path d="M0 0 C52.14 0 104.28 0 158 0 C158 0.66 158 1.32 158 2 C154.56490985 3.05030679 151.4333126 3.11435144 147.85131836 3.0957489 C146.58947723 3.09159973 145.32763611 3.08745056 144.02755737 3.08317566 C142.63165205 3.07338323 141.23574753 3.06347643 139.83984375 3.0534668 C138.36793196 3.04659541 136.89601815 3.04014637 135.42410278 3.03408813 C131.42829256 3.01617612 127.4325496 2.99161599 123.43678665 2.96532798 C120.10166244 2.94383133 116.76652452 2.92517598 113.43138409 2.90639621 C105.56457176 2.86189432 97.6978102 2.81160147 89.83105469 2.75805664 C81.71269661 2.70292974 73.59433006 2.65894606 65.47587872 2.62020558 C58.50674082 2.58647788 51.53767502 2.54515562 44.56861591 2.49788028 C40.40576744 2.46976165 36.24295553 2.44470206 32.08004761 2.4272213 C28.16642816 2.4105134 24.25298478 2.38436025 20.33947372 2.35091019 C18.90277089 2.34023479 17.46603845 2.33293425 16.02930069 2.32924461 C14.06904725 2.32368407 12.10884511 2.30478849 10.14868164 2.28520203 C9.05141251 2.27837245 7.95414337 2.27154287 6.82362366 2.26450634 C4 2 4 2 0 0 Z " fill="#FCA20A" transform="translate(458,573)"/>
<path d="M0 0 C0.33 0 0.66 0 1 0 C1.16768422 3.93745736 1.3339732 7.87497243 1.5 11.8125 C1.54769531 12.93205078 1.59539063 14.05160156 1.64453125 15.20507812 C1.68964844 16.27822266 1.73476563 17.35136719 1.78125 18.45703125 C1.8440918 19.9416687 1.8440918 19.9416687 1.90820312 21.45629883 C1.97485575 23.30325026 2 25.15184629 2 27 C1.67 27.33 1.34 27.66 1 28 C0.78822158 29.90407642 0.6421697 31.81549571 0.52197266 33.72753906 C0.44328949 34.95414246 0.36460632 36.18074585 0.28353882 37.44451904 C0.20176531 38.80153743 0.12028157 40.15857331 0.0390625 41.515625 C-0.04791189 42.91872976 -0.13502143 44.32182616 -0.22225952 45.72491455 C-1.07969065 59.6940401 -1.7792248 73.67091746 -2.43261719 87.65087891 C-2.59480911 91.12083133 -2.76186171 94.59053162 -2.93017006 98.06019211 C-3.09401566 101.45146669 -3.25386307 104.8429262 -3.4140625 108.234375 C-3.47340973 109.45840027 -3.53275696 110.68242554 -3.59390259 111.94354248 C-4.75032909 124.60140587 -4.75032909 124.60140587 -3 137 C-2.505 137.474375 -2.01 137.94875 -1.5 138.4375 C0.46573078 140.48513623 0.62668561 142.23747349 1 145 C-3.35125188 141.10677463 -5.65419488 137.9654995 -6.17184258 132.02940559 C-6.23705808 129.726288 -6.22744798 127.43487 -6.19116211 125.13110352 C-6.18386802 124.26061906 -6.17657393 123.3901346 -6.1690588 122.49327183 C-6.03575774 111.61938249 -5.48763654 100.76169147 -4.94140625 89.90234375 C-4.8313425 87.64801245 -4.72164427 85.39366328 -4.61228943 83.13929749 C-4.38409352 78.45574877 -4.15269801 73.77237374 -3.91870117 69.08911133 C-3.6201312 63.11157694 -3.32793031 57.13375254 -3.03788853 51.15579891 C-2.81242473 46.51698035 -2.58451566 41.87828457 -2.35578728 37.23962593 C-2.24721664 35.03541253 -2.13918046 32.83117274 -2.03170967 30.62690544 C-1.88097903 27.54664062 -1.727174 24.46654413 -1.57250977 21.38647461 C-1.52935135 20.49431747 -1.48619293 19.60216034 -1.44172668 18.68296814 C-1.12361022 12.43803376 -0.60560907 6.22340222 0 0 Z " fill="#0F170E" transform="translate(698,644)"/>
<path d="M0 0 C2.07353427 -0.00218088 4.14653056 -0.0203655 6.2199707 -0.03930664 C13.62168555 -0.06957474 20.59315923 0.29322798 27.77661133 2.18530273 C27.77661133 2.51530273 27.77661133 2.84530273 27.77661133 3.18530273 C25.13661133 3.18530273 22.49661133 3.18530273 19.77661133 3.18530273 C19.44661133 3.84530273 19.11661133 4.50530273 18.77661133 5.18530273 C7.22661133 5.18530273 -4.32338867 5.18530273 -16.22338867 5.18530273 C-16.22338867 4.52530273 -16.22338867 3.86530273 -16.22338867 3.18530273 C-18.53338867 3.18530273 -20.84338867 3.18530273 -23.22338867 3.18530273 C-16.61979102 -1.2170957 -7.69947388 -0.00090508 0 0 Z " fill="#053132" transform="translate(288.223388671875,249.814697265625)"/>
<path d="M0 0 C0.33 0 0.66 0 1 0 C1.4125556 19.37236873 0.23316769 38.67807806 -0.79595947 58.01416016 C-1.03150436 62.46300282 -1.26049527 66.91218258 -1.49023438 71.36132812 C-2.2956552 86.90932852 -3.12910965 102.45552524 -4 118 C-4.33 118 -4.66 118 -5 118 C-5.11583702 105.78562999 -4.86976049 93.66863788 -4.1449585 81.47653198 C-2.80874106 58.64803067 -2.78588257 35.85950666 -3 13 C-2.67 13 -2.34 13 -2 13 C-2 14.65 -2 16.3 -2 18 C-1.34 18 -0.68 18 0 18 C0 12.06 0 6.12 0 0 Z " fill="#F0B438" transform="translate(700,575)"/>
<path d="M0 0 C1.134375 0.020625 2.26875 0.04125 3.4375 0.0625 C3.4375 0.7225 3.4375 1.3825 3.4375 2.0625 C2.1175 2.0625 0.7975 2.0625 -0.5625 2.0625 C-0.5625 2.7225 -0.5625 3.3825 -0.5625 4.0625 C1.42317708 3.99739583 3.40885417 3.93229167 5.39453125 3.8671875 C7.4375 4.0625 7.4375 4.0625 10.4375 6.0625 C9.10429321 6.09027514 7.77090287 6.10923341 6.4375 6.125 C5.695 6.13660156 4.9525 6.14820313 4.1875 6.16015625 C1.4375 6.0625 1.4375 6.0625 -2.20019531 5.58935547 C-6.49940165 5.04178689 -10.78167788 4.74453803 -15.109375 4.53515625 C-15.9529657 4.49383072 -16.7965564 4.45250519 -17.66571045 4.40992737 C-30.35200167 3.83908211 -43.05296083 3.71381975 -55.74951172 3.53027344 C-59.23669312 3.4791006 -62.72381131 3.42392627 -66.2109375 3.36914062 C-72.99473649 3.26312531 -79.77859313 3.16136557 -86.5625 3.0625 C-86.5625 2.7325 -86.5625 2.4025 -86.5625 2.0625 C-82.33916505 1.03179076 -78.26284362 0.93297768 -73.94238281 0.96484375 C-73.19223404 0.96630402 -72.44208527 0.96776428 -71.66920471 0.9692688 C-70.0475727 0.97306219 -68.42594478 0.97916538 -66.80432892 0.98733521 C-64.24126862 1.00012151 -61.67826016 1.00661958 -59.11517334 1.01147461 C-53.68092553 1.022885 -48.24672071 1.04214936 -42.8125 1.0625 C-36.50190293 1.08606614 -30.19132975 1.10645 -23.88069916 1.11843872 C-21.34957158 1.12494487 -18.81851758 1.13744894 -16.28741455 1.15014648 C-14.74662338 1.15377657 -13.20583153 1.1571286 -11.66503906 1.16015625 C-10.9564827 1.16532257 -10.24792633 1.17048889 -9.51789856 1.17581177 C-7.86566727 1.17599318 -6.21355727 1.12477499 -4.5625 1.0625 C-3.5625 0.0625 -3.5625 0.0625 0 0 Z " fill="#E6AC33" transform="translate(792.5625,254.9375)"/>
<path d="M0 0 C54.12 0 108.24 0 164 0 C162 2 162 2 159.28635979 2.23047829 C158.12305704 2.22126036 156.9597543 2.21204243 155.76119995 2.20254517 C155.11428983 2.20017046 154.46737971 2.19779576 153.80086625 2.1953491 C151.6234187 2.18489481 149.44637144 2.16001322 147.26904297 2.13525391 C145.71212306 2.12483254 144.15519701 2.11529643 142.5982666 2.10658264 C138.36287901 2.08035548 134.12768412 2.0416906 129.89241552 2.00085878 C125.46951678 1.96031133 121.04654381 1.93111036 116.62356567 1.90072632 C108.24413812 1.84142842 99.86482817 1.77186743 91.4855119 1.69865549 C81.947615 1.61581778 72.40964356 1.54436599 62.87164855 1.47388959 C43.24765587 1.3286315 23.62380152 1.16901304 4 1 C4.33 2.32 4.66 3.64 5 5 C3.35 3.35 1.7 1.7 0 0 Z " fill="#F2C14D" transform="translate(454,572)"/>
<path d="M0 0 C0.33 0 0.66 0 1 0 C1.33 6.27 1.66 12.54 2 19 C2.33 19 2.66 19 3 19 C3.05447047 20.41623216 3.09300508 21.83308191 3.125 23.25 C3.14820313 24.03890625 3.17140625 24.8278125 3.1953125 25.640625 C2.9828378 28.20731941 2.28654105 29.7916067 1 32 C1.66 32 2.32 32 3 32 C3.05787784 35.62493334 3.0935542 39.24974857 3.125 42.875 C3.14175781 43.90753906 3.15851562 44.94007813 3.17578125 46.00390625 C3.18222656 46.99003906 3.18867187 47.97617187 3.1953125 48.9921875 C3.20578613 49.90339355 3.21625977 50.81459961 3.22705078 51.75341797 C3 54 3 54 1 56 C0.86722656 55.11957031 0.73445312 54.23914063 0.59765625 53.33203125 C0.42105469 52.17058594 0.24445312 51.00914062 0.0625 49.8125 C-0.19853516 48.08966797 -0.19853516 48.08966797 -0.46484375 46.33203125 C-0.77208648 44.41905279 -1.11107077 42.50931583 -1.53881836 40.61962891 C-2.01831295 37.8959778 -2.04043725 35.51342126 -1.9140625 32.75390625 C-1.87079834 31.75746094 -1.82753418 30.76101563 -1.78295898 29.734375 C-1.73083252 28.68765625 -1.67870605 27.6409375 -1.625 26.5625 C-1.55164429 24.95955078 -1.55164429 24.95955078 -1.47680664 23.32421875 C-1.10866255 15.53959115 -0.64270942 7.76721174 0 0 Z " fill="#0B2C2F" transform="translate(700,606)"/>
<path d="M0 0 C2.31 0 4.62 0 7 0 C7 0.66 7 1.32 7 2 C8.65 2 10.3 2 12 2 C12 2.66 12 3.32 12 4 C11.01 4.33 10.02 4.66 9 5 C13.95 6.98 13.95 6.98 19 9 C15.89274804 10.55362598 13.75643774 9.18920857 10.5 8.1875 C0.16700345 5.02130526 -9.31299878 3.64868693 -20.17504883 3.68432617 C-22.16688509 3.68746749 -24.15870307 3.66321214 -26.15039062 3.63867188 C-35.54305839 3.63403352 -43.88973453 4.95601727 -53 7 C-54.9976187 7.34731923 -56.99696559 7.68541417 -59 8 C-56.16574057 5.16574057 -52.85678372 4.79523191 -49.0625 3.9375 C-48.29123779 3.7612207 -47.51997559 3.58494141 -46.7253418 3.40332031 C-40.81988981 2.09662405 -35.05452413 1.20123418 -29 1 C-27.47632813 0.94005859 -27.47632813 0.94005859 -25.921875 0.87890625 C-15.53338326 0.67355234 -5.30955747 1.83835972 5 3 C2.525 2.505 2.525 2.505 0 2 C0 1.34 0 0.68 0 0 Z " fill="#E0AB3D" transform="translate(313,247)"/>
<path d="M0 0 C0 0.33 0 0.66 0 1 C-6.01746913 2.03621855 -11.56359731 1.87847675 -17.64648438 1.47851562 C-32.20378299 0.45685051 -32.20378299 0.45685051 -45.8125 4.96875 C-48 6 -48 6 -51 5 C-33.27561138 -3.12154983 -19.08274565 -4.37964654 0 0 Z " fill="#E5A82F" transform="translate(309,288)"/>
<path d="M0 0 C4.93264249 2.37823834 4.93264249 2.37823834 7 5 C7.63220873 9.38827238 7.40624683 13.59576847 7 18 C6.01 18 5.02 18 4 18 C4.20496094 19.02996094 4.40992188 20.05992187 4.62109375 21.12109375 C6.59541141 31.42437347 7.61964736 41.52062893 8 52 C7.67 52 7.34 52 7 52 C6.00117536 44.91612185 5.00447675 37.83194695 4.00927734 30.74755859 C3.67025275 28.33603081 3.33073594 25.92457217 2.99072266 23.51318359 C2.50294589 20.05323933 2.01692205 16.59305275 1.53125 13.1328125 C1.37813354 12.04944611 1.22501709 10.96607971 1.06726074 9.84988403 C0.92711548 8.8489975 0.78697021 7.84811096 0.64257812 6.81689453 C0.51822388 5.93309113 0.39386963 5.04928772 0.26574707 4.13870239 C0 2 0 2 0 0 Z " fill="#0E2625" transform="translate(440,635)"/>
<path d="M0 0 C12.21 0 24.42 0 37 0 C37.495 1.98 37.495 1.98 38 4 C25.46 3.67 12.92 3.34 0 3 C0 2.01 0 1.02 0 0 Z " fill="#012843" transform="translate(597,258)"/>
<path d="M0 0 C1.47871399 0.98530579 1.47871399 0.98530579 3 3 C3.28058662 5.81988192 3.37889811 8.41624436 3.34057617 11.23510742 C3.34123329 12.49397514 3.34123329 12.49397514 3.34190369 13.77827454 C3.33981247 16.55424201 3.31646586 19.32960669 3.29296875 22.10546875 C3.28737398 24.02931895 3.28310332 25.95317342 3.28010559 27.87702942 C3.26864747 32.9422484 3.23917193 38.00720958 3.20599365 43.07232666 C3.17531363 48.24023959 3.16160468 53.40819414 3.14648438 58.57617188 C3.1143032 68.71756122 3.06309512 78.85875918 3 89 C2.67 89 2.34 89 2 89 C1.98969254 88.07371796 1.97938507 87.14743591 1.96876526 86.19308472 C1.87068998 77.45350292 1.76816144 68.71398706 1.66066074 59.97451591 C1.60555312 55.48173271 1.55215298 50.98894287 1.50268555 46.49609375 C1.4548621 42.15831152 1.40251359 37.82060512 1.34705925 33.48291397 C1.32671692 31.82998677 1.30799083 30.17703884 1.29092598 28.52407455 C1.26670123 26.20461308 1.23667271 23.88529259 1.20532227 21.56591797 C1.18977798 20.24687469 1.1742337 18.92783142 1.15821838 17.56881714 C1.01283347 14.28947519 0.59473914 11.22300154 0 8 C-0.11196073 5.32189925 -0.04625299 2.68267314 0 0 Z " fill="#FD9F0F" transform="translate(792,381)"/>
<path d="M0 0 C0.66 0.33 1.32 0.66 2 1 C-2.69447139 8.89524733 -2.69447139 8.89524733 -5.1875 9.75 C-11.08555384 12.37135726 -14.77103611 16.91404483 -17.1875 22.8125 C-17.44917969 23.56144531 -17.71085938 24.31039063 -17.98046875 25.08203125 C-19.26593305 27.50028018 -20.58120894 27.84634815 -23 29 C-23.33 30.010625 -23.66 31.02125 -24 32.0625 C-24.495 33.5165625 -24.495 33.5165625 -25 35 C-27.125 35.875 -27.125 35.875 -29 36 C-27.42099273 31.23559655 -24.79162876 27.59588286 -21.8125 23.625 C-21.29655273 22.93470703 -20.78060547 22.24441406 -20.24902344 21.53320312 C-14.20530707 13.66314786 -7.17750367 6.82451169 0 0 Z " fill="#042938" transform="translate(228,269)"/>
<path d="M0 0 C1.83979073 2.7596861 2.48323221 4.29741882 3.1875 7.4375 C3.36667969 8.19933594 3.54585938 8.96117187 3.73046875 9.74609375 C4.0154963 12.12958496 3.72875415 13.73104204 3 16 C2.67 15.67 2.34 15.34 2 15 C1.67 26.22 1.34 37.44 1 49 C0.01 49.495 0.01 49.495 -1 50 C-1.02471738 45.21281308 -1.04286825 40.4256633 -1.05493164 35.63842773 C-1.05996065 34.00984042 -1.06678465 32.38125763 -1.07543945 30.75268555 C-1.08756769 28.41193528 -1.09324263 26.0712447 -1.09765625 23.73046875 C-1.10281754 23.00224411 -1.10797882 22.27401947 -1.11329651 21.52372742 C-1.11364279 18.40397712 -0.99455604 15.98366812 0 13 C0.06937062 10.77181559 0.08457084 8.54165476 0.0625 6.3125 C0.05347656 5.13300781 0.04445313 3.95351563 0.03515625 2.73828125 C0.02355469 1.83464844 0.01195312 0.93101562 0 0 Z " fill="#F6A128" transform="translate(358,334)"/>
<path d="M0 0 C0.33 0 0.66 0 1 0 C1.33 1.98 1.66 3.96 2 6 C2.66 5.34 3.32 4.68 4 4 C3.96519531 5.09054687 3.93039062 6.18109375 3.89453125 7.3046875 C3.65356943 18.53200219 4.81478429 28.99587804 7 40 C7.33 40 7.66 40 8 40 C8 45.61 8 51.22 8 57 C7.67 57 7.34 57 7 57 C4.96745213 44.14168914 2.97454052 31.27873347 1.25 18.375 C1.12262451 17.44743896 0.99524902 16.51987793 0.86401367 15.56420898 C0.17933202 10.3252188 -0.12315736 5.28345084 0 0 Z " fill="#E9B541" transform="translate(481,659)"/>
<path d="M0 0 C0.33 0 0.66 0 1 0 C1.2708133 9.29090223 0.59804052 18.24150954 -0.59912109 27.43286133 C-0.87856333 29.59000698 -1.14114095 31.74878074 -1.40234375 33.90820312 C-1.57713814 35.29439563 -1.75288358 36.68046862 -1.9296875 38.06640625 C-2.08679199 39.30334229 -2.24389648 40.54027832 -2.40576172 41.81469727 C-2.92938628 44.62148842 -3.55231223 46.56938451 -5 49 C-5.02692484 46.70839681 -5.04636124 44.41670454 -5.0625 42.125 C-5.07410156 40.84882812 -5.08570312 39.57265625 -5.09765625 38.2578125 C-5 35 -5 35 -4 33 C-3.73492604 29.34418829 -3.55514201 25.69453367 -3.39453125 22.03320312 C-3.1006921 16.1006921 -3.1006921 16.1006921 -2 15 C-1.79031249 12.67013877 -1.63184611 10.33555964 -1.5 8 C-1.11111111 1.11111111 -1.11111111 1.11111111 0 0 Z " fill="#FC9F0C" transform="translate(118,505)"/>
<path d="M0 0 C0.33 0 0.66 0 1 0 C1.16747424 6.07094107 0.52673246 11.65107327 -0.5 17.625 C-1.83695133 25.85309838 -2.37318229 33.65177403 -2 42 C-3.485 42.495 -3.485 42.495 -5 43 C-5.31035719 34.34893234 -4.36136071 26.10621698 -3.0625 17.5625 C-2.88009766 16.31017578 -2.69769531 15.05785156 -2.50976562 13.76757812 C-1.0458729 3.85037033 -1.0458729 3.85037033 0 0 Z M-1 32 C-0.34 32 0.32 32 1 32 C1 34.97 1 37.94 1 41 C0.01 41 -0.98 41 -2 41 C-1.67 38.03 -1.34 35.06 -1 32 Z " fill="#132722" transform="translate(102,653)"/>
<path d="M0 0 C0.33 0 0.66 0 1 0 C1.02505615 1.03930664 1.0501123 2.07861328 1.07592773 3.14941406 C1.17020926 7.01102703 1.27037908 10.87246883 1.37231445 14.73388672 C1.41558489 16.40409334 1.45726549 18.07434194 1.49731445 19.74462891 C1.55520851 22.14758955 1.6188474 24.55034041 1.68359375 26.953125 C1.70030624 27.69806213 1.71701874 28.44299927 1.73423767 29.21051025 C1.83061695 32.59509934 1.96070174 35.7600524 3 39 C2.34 39 1.68 39 1 39 C1 38.01 1 37.02 1 36 C0.34 36 -0.32 36 -1 36 C-1.33 36.99 -1.66 37.98 -2 39 C-2.5625 37.0625 -2.5625 37.0625 -3 35 C-2.505 34.505 -2.505 34.505 -2 34 C-1.8525031 31.56554087 -1.76511465 29.15571433 -1.71875 26.71875 C-1.70034058 25.99006714 -1.68193115 25.26138428 -1.66296387 24.51062012 C-1.6040406 22.17383107 -1.55129346 19.83696827 -1.5 17.5 C-1.43254985 14.42692089 -1.35888207 11.35408684 -1.28125 8.28125 C-1.26767456 7.56771362 -1.25409912 6.85417725 -1.2401123 6.11901855 C-1.11280181 1.11280181 -1.11280181 1.11280181 0 0 Z " fill="#FDA00A" transform="translate(690,745)"/>
<path d="M0 0 C0.33 0 0.66 0 1 0 C1.72089234 4.53356923 2.43259729 9.06845628 3.13623047 13.60473633 C3.37629075 15.14418331 3.61875378 16.68325777 3.86376953 18.22192383 C6.36606418 33.95573974 6.36606418 33.95573974 6 42 C5.67 42 5.34 42 5 42 C1.55580866 25.29157175 1.55580866 25.29157175 2 17 C0.68 17 -0.64 17 -2 17 C-2.08226668 13.95613276 -1.97608217 11.92824652 -1 9 C-0.78196693 7.44146733 -0.59633644 5.87817349 -0.4375 4.3125 C-0.35371094 3.50425781 -0.26992188 2.69601562 -0.18359375 1.86328125 C-0.12300781 1.24839844 -0.06242187 0.63351562 0 0 Z " fill="#F0B032" transform="translate(441,647)"/>
<path d="M0 0 C0.66 0 1.32 0 2 0 C2.05386629 2.12472576 2.09273071 4.24983652 2.125 6.375 C2.14820313 7.55835938 2.17140625 8.74171875 2.1953125 9.9609375 C2 13 2 13 0 15 C-0.6425235 17.06874034 -0.6425235 17.06874034 -1 19 C-1.99 18.67 -2.98 18.34 -4 18 C-3.979375 19.19625 -3.95875 20.3925 -3.9375 21.625 C-3.93117429 25.18004869 -4.30111125 28.50555624 -5 32 C-5.33 32 -5.66 32 -6 32 C-6.16356156 25.30079127 -5.57602131 19.0438831 -4.5 12.4375 C-4.35691406 11.52419922 -4.21382812 10.61089844 -4.06640625 9.66992188 C-3.71703202 7.44557264 -3.36148178 5.2224079 -3 3 C-2.67 3 -2.34 3 -2 3 C-1.67 5.64 -1.34 8.28 -1 11 C-0.67 7.37 -0.34 3.74 0 0 Z " fill="#EBAB37" transform="translate(141,655)"/>
<path d="M0 0 C0.33 0 0.66 0 1 0 C1 8.91 1 17.82 1 27 C0.34 26.67 -0.32 26.34 -1 26 C-1.99 32.6 -2.98 39.2 -4 46 C-4.33 46 -4.66 46 -5 46 C-4.50631018 30.54750849 -2.14857457 15.2893701 0 0 Z " fill="#E1AD3B" transform="translate(154,533)"/>
<path d="M0 0 C-2.49064888 0.68707555 -4.37886292 1 -7 1 C-6.67 1.66 -6.34 2.32 -6 3 C-11.61 3 -17.22 3 -23 3 C-23 2.34 -23 1.68 -23 1 C-25.31 1 -27.62 1 -30 1 C-21.7824727 -4.47835154 -9.02209583 -2.88707067 0 0 Z " fill="#F0AD34" transform="translate(685,354)"/>
<path d="M0 0 C0.33 0 0.66 0 1 0 C1.16768422 3.93745736 1.3339732 7.87497243 1.5 11.8125 C1.54769531 12.93205078 1.59539063 14.05160156 1.64453125 15.20507812 C1.68964844 16.27822266 1.73476563 17.35136719 1.78125 18.45703125 C1.82314453 19.44678955 1.86503906 20.43654785 1.90820312 21.45629883 C1.97485575 23.30325026 2 25.15184629 2 27 C1.67 27.33 1.34 27.66 1 28 C0.60006314 30.68862664 0.24865457 33.36352217 -0.0625 36.0625 C-0.15337891 36.82111328 -0.24425781 37.57972656 -0.33789062 38.36132812 C-0.5624374 40.2404301 -0.78170978 42.12016095 -1 44 C-1.33 44 -1.66 44 -2 44 C-2.15197425 34.18605159 -1.68197304 24.46969378 -1 14.6875 C-0.90324913 13.25328191 -0.80689286 11.81903715 -0.7109375 10.38476562 C-0.4784875 6.92285893 -0.24076656 3.46133946 0 0 Z " fill="#202A1B" transform="translate(698,644)"/>
<path d="M0 0 C0.66 0.33 1.32 0.66 2 1 C2.45760607 6.7200759 1.63848132 9.55296727 -2 14 C-4.25 15.875 -4.25 15.875 -6 17 C-6 16.34 -6 15.68 -6 15 C-6.66 15 -7.32 15 -8 15 C-8 14.34 -8 13.68 -8 13 C-6.35 12.67 -4.7 12.34 -3 12 C-3 11.34 -3 10.68 -3 10 C-3.99 9.67 -4.98 9.34 -6 9 C-5.67 6.69 -5.34 4.38 -5 2 C-3.68 2 -2.36 2 -1 2 C-0.67 3.65 -0.34 5.3 0 7 C0 4.69 0 2.38 0 0 Z " fill="#0A2D32" transform="translate(662,554)"/>
<path d="M0 0 C0.66 0 1.32 0 2 0 C1.87882813 0.76441406 1.75765625 1.52882813 1.6328125 2.31640625 C0.47384933 9.71214658 0.47384933 9.71214658 -0.5078125 17.1328125 C-0.59047363 17.80884521 -0.67313477 18.48487793 -0.75830078 19.18139648 C-0.9911036 21.11365988 -1.21448988 23.04705067 -1.4375 24.98046875 C-2 28 -2 28 -4 30 C-4.1698905 27.50018262 -4.33597953 25.00020399 -4.5 22.5 C-4.54769531 21.80390625 -4.59539062 21.1078125 -4.64453125 20.390625 C-4.95613367 15.58304475 -5.04340282 10.81771254 -5 6 C-4.67 6 -4.34 6 -4 6 C-3.67 8.31 -3.34 10.62 -3 13 C-2.67 10.36 -2.34 7.72 -2 5 C-1.34 5 -0.68 5 0 5 C0 3.35 0 1.7 0 0 Z " fill="#FCA10D" transform="translate(133,398)"/>
<path d="M0 0 C4.29160791 -0.05871491 8.58311058 -0.09383483 12.875 -0.125 C14.07898438 -0.14175781 15.28296875 -0.15851563 16.5234375 -0.17578125 C23.60751691 -0.21428168 30.12667175 0.23949115 37 2 C37 2.33 37 2.66 37 3 C26.77 3 16.54 3 6 3 C6 2.67 6 2.34 6 2 C3.03 1.505 3.03 1.505 0 1 C0 0.67 0 0.34 0 0 Z " fill="#06212A" transform="translate(279,250)"/>
<path d="M0 0 C1.8125 1.4375 1.8125 1.4375 3 3 C2.67 3.99 2.34 4.98 2 6 C2.763125 6.103125 3.52625 6.20625 4.3125 6.3125 C7.25914648 7.06629329 8.07981183 7.73068671 10 10 C10.556875 10.556875 11.11375 11.11375 11.6875 11.6875 C12.120625 12.120625 12.55375 12.55375 13 13 C8.46092097 11.54051151 4.03969411 9.85714592 -0.375 8.0625 C-5.55868695 5.97071415 -10.75282865 3.92753233 -16 2 C-12.44757118 0.81585706 -11.30169438 1.30464468 -7.8125 2.4375 C-6.46091797 2.86869141 -6.46091797 2.86869141 -5.08203125 3.30859375 C-4.05142578 3.65083984 -4.05142578 3.65083984 -3 4 C-3.66 3.67 -4.32 3.34 -5 3 C-5 2.34 -5 1.68 -5 1 C-2.6875 0.3125 -2.6875 0.3125 0 0 Z " fill="#EBAE3A" transform="translate(829,262)"/>
<path d="M0 0 C2.73601504 4.35482393 2.734586 9.34798312 3.2109375 14.33203125 C3.55033031 18.61850528 3.55033031 18.61850528 6 22 C6.22705078 24.06298828 6.22705078 24.06298828 6.1953125 26.5703125 C6.18886719 27.46621094 6.18242187 28.36210937 6.17578125 29.28515625 C6.15902344 30.22230469 6.14226562 31.15945313 6.125 32.125 C6.11597656 33.06988281 6.10695313 34.01476562 6.09765625 34.98828125 C6.07404522 37.32577292 6.04111516 39.66276123 6 42 C5.67 42 5.34 42 5 42 C4.28035731 37.30547981 3.56857286 32.60985697 2.86376953 27.91308594 C2.62336748 26.31836524 2.38089142 24.72395567 2.13623047 23.12988281 C1.78315668 20.82697705 1.43777385 18.52302298 1.09375 16.21875 C0.9843811 15.51633179 0.87501221 14.81391357 0.7623291 14.09020996 C0.06411363 9.34655933 -0.09402476 4.795263 0 0 Z " fill="#0E1915" transform="translate(419,454)"/>
<path d="M0 0 C0.33 0 0.66 0 1 0 C1 4.62 1 9.24 1 14 C1.66 13.67 2.32 13.34 3 13 C3 15.64 3 18.28 3 21 C2.34 21.33 1.68 21.66 1 22 C0.67 21.34 0.34 20.68 0 20 C-0.66 23.96 -1.32 27.92 -2 32 C-2.33 32 -2.66 32 -3 32 C-3.68209297 21.21282599 -1.66777225 10.6172629 0 0 Z " fill="#E7AE3C" transform="translate(166,441)"/>
<path d="M0 0 C1.98 0 3.96 0 6 0 C1.90473413 4.89434213 -2.26357085 9.70720334 -7 14 C-7.33 14 -7.66 14 -8 14 C-7.8125 10.6875 -7.8125 10.6875 -7 7 C-4.5625 5.3125 -4.5625 5.3125 -2 4 C-0.67206394 1.93299345 -0.67206394 1.93299345 0 0 Z " fill="#F5AA28" transform="translate(602,582)"/>
<path d="M0 0 C2.58656673 0.22288501 5.15952778 0.41314385 7.75 0.5625 C8.44738281 0.60568359 9.14476562 0.64886719 9.86328125 0.69335938 C11.57531922 0.79889596 13.28763561 0.8998991 15 1 C11.2632157 3.49118953 9.25548181 3.2065226 4.8125 3.125 C3.54019531 3.10695313 2.26789062 3.08890625 0.95703125 3.0703125 C-0.50669922 3.03550781 -0.50669922 3.03550781 -2 3 C-2 2.34 -2 1.68 -2 1 C-2.99 1 -3.98 1 -5 1 C-5 1.66 -5 2.32 -5 3 C-4.34 3.33 -3.68 3.66 -3 4 C-4.32 4.33 -5.64 4.66 -7 5 C-7.33 4.34 -7.66 3.68 -8 3 C-8.66 2.67 -9.32 2.34 -10 2 C-6.01698817 -0.2630749 -4.34105282 -1.18932954 0 0 Z " fill="#F4A125" transform="translate(820,348)"/>
<path d="M0 0 C2 2 2 2 2.125 4.625 C2.08375 5.40875 2.0425 6.1925 2 7 C1.13181641 7.14695312 1.13181641 7.14695312 0.24609375 7.296875 C-2.45342196 8.14194079 -3.85238712 9.35068925 -5.9375 11.25 C-6.62714844 11.87519531 -7.31679688 12.50039063 -8.02734375 13.14453125 C-10.40624942 15.38211579 -12.72649669 17.65544971 -15 20 C-15.66 19.67 -16.32 19.34 -17 19 C-15.66195313 17.69675781 -15.66195313 17.69675781 -14.296875 16.3671875 C-13.11431465 15.20339795 -11.932038 14.03932008 -10.75 12.875 C-9.87021484 12.02035156 -9.87021484 12.02035156 -8.97265625 11.1484375 C-5.44519164 7.66060733 -2.59693092 4.22965482 0 0 Z " fill="#EBAE33" transform="translate(478,767)"/>
<path d="M0 0 C1.32 0.66 2.64 1.32 4 2 C1.69 5.3 -0.62 8.6 -3 12 C-3.33 11.01 -3.66 10.02 -4 9 C-4.66 9 -5.32 9 -6 9 C-6.66 7.68 -7.32 6.36 -8 5 C-7.05125 4.731875 -6.1025 4.46375 -5.125 4.1875 C-1.74732727 3.25013412 -1.74732727 3.25013412 0 0 Z " fill="#F3A222" transform="translate(203,291)"/>
<path d="M0 0 C0.66 0 1.32 0 2 0 C1.99476318 0.55461914 1.98952637 1.10923828 1.98413086 1.68066406 C1.96328969 4.20376443 1.95031718 6.72684664 1.9375 9.25 C1.92912109 10.12269531 1.92074219 10.99539063 1.91210938 11.89453125 C1.90888672 12.73886719 1.90566406 13.58320312 1.90234375 14.453125 C1.89710693 15.22817383 1.89187012 16.00322266 1.88647461 16.80175781 C2.04686772 19.90752034 2.20543996 22.23854662 4.5 24.4375 C6.46573078 26.48513623 6.62668561 28.23747349 7 31 C2.48970626 26.96447402 0.24901025 23.7948533 -0.15478516 17.64111328 C-0.19644935 14.9660714 -0.17460523 12.29986687 -0.125 9.625 C-0.11597656 8.69816406 -0.10695313 7.77132812 -0.09765625 6.81640625 C-0.07422937 4.54399923 -0.04142748 2.2721382 0 0 Z " fill="#172421" transform="translate(692,758)"/>
<path d="M0 0 C0.66 0.33 1.32 0.66 2 1 C-2.69447139 8.89524733 -2.69447139 8.89524733 -5.1875 9.75 C-9.66170614 11.73853606 -13.7900494 15.5800988 -16 20 C-16.66 19.67 -17.32 19.34 -18 19 C-12.36531717 12.2883812 -6.24063576 6.13907026 0 0 Z " fill="#0C2127" transform="translate(228,269)"/>
<path d="M0 0 C0.33 0 0.66 0 1 0 C1.12224626 9.0598059 0.83930594 17.97746114 0 27 C-0.66 27 -1.32 27 -2 27 C-2.33 21.39 -2.66 15.78 -3 10 C-2.34 10.66 -1.68 11.32 -1 12 C-0.67 8.04 -0.34 4.08 0 0 Z " fill="#F3A228" transform="translate(159,518)"/>
<path d="M0 0 C5.61 0 11.22 0 17 0 C17 0.66 17 1.32 17 2 C20.96 3.65 24.92 5.3 29 7 C25.07266299 8.30911234 22.70835483 7.05670316 19 5.6875 C12.73253154 3.47235948 6.60114194 1.91949378 0 1 C0 0.67 0 0.34 0 0 Z " fill="#17261F" transform="translate(294,285)"/>
<path d="M0 0 C0.33 0 0.66 0 1 0 C1.33 3.3 1.66 6.6 2 10 C2.33 10 2.66 10 3 10 C3 11.65 3 13.3 3 15 C2.01 15.495 2.01 15.495 1 16 C1 15.01 1 14.02 1 13 C0.34 13 -0.32 13 -1 13 C-1.33 14.65 -1.66 16.3 -2 18 C-2.99489895 14.7999892 -2.99548437 12.2568397 -2.625 8.9375 C-2.53476562 8.08027344 -2.44453125 7.22304688 -2.3515625 6.33984375 C-1.64636542 1.64636542 -1.64636542 1.64636542 0 0 Z " fill="#F49E12" transform="translate(490,735)"/>
<path d="M0 0 C0 0.66 0 1.32 0 2 C-1.62626404 3.38232443 -3.2925002 4.71937515 -5 6 C-4.67 7.32 -4.34 8.64 -4 10 C-6.475 11.485 -6.475 11.485 -9 13 C-9.33 12.34 -9.66 11.68 -10 11 C-10.99 11.99 -11.98 12.98 -13 14 C-13.66 13.67 -14.32 13.34 -15 13 C-12.88094537 10.82722286 -10.75527122 8.66173092 -8.625 6.5 C-8.02171875 5.87996094 -7.4184375 5.25992188 -6.796875 4.62109375 C-6.21679688 4.03457031 -5.63671875 3.44804688 -5.0390625 2.84375 C-4.50490723 2.29912109 -3.97075195 1.75449219 -3.42041016 1.19335938 C-2 0 -2 0 0 0 Z " fill="#0A2629" transform="translate(609,583)"/>
<path d="M0 0 C1.48168945 1.0715332 1.48168945 1.0715332 3 3 C3.34057617 6.09448242 3.34057617 6.09448242 3.29296875 9.85546875 C3.28872391 10.51710526 3.28447906 11.17874176 3.28010559 11.86042786 C3.26333693 13.9698691 3.22569099 16.07834846 3.1875 18.1875 C3.17245068 19.61912681 3.1587627 21.05076862 3.14648438 22.48242188 C3.1134403 25.98859288 3.06167167 29.49420254 3 33 C2.67 33 2.34 33 2 33 C1.93941406 31.69804687 1.87882813 30.39609375 1.81640625 29.0546875 C1.73195438 27.32811601 1.64730874 25.601554 1.5625 23.875 C1.52318359 23.0190625 1.48386719 22.163125 1.44335938 21.28125 C1.21800094 16.7740812 0.78531578 12.45012275 0 8 C-0.11196073 5.32189925 -0.04625299 2.68267314 0 0 Z " fill="#E99711" transform="translate(792,381)"/>
<path d="M0 0 C9.59453303 2.89066059 9.59453303 2.89066059 13 6 C12.01 6.33 11.02 6.66 10 7 C10 7.33 10 7.66 10 8 C8.35 8 6.7 8 5 8 C5 7.34 5 6.68 5 6 C3.68 6 2.36 6 1 6 C1 5.34 1 4.68 1 4 C1.99 3.67 2.98 3.34 4 3 C2.68 3 1.36 3 0 3 C0 2.01 0 1.02 0 0 Z " fill="#0B2B2C" transform="translate(827,269)"/>
<path d="M0 0 C-1.28479041 1.50589388 -2.57804082 3.00457375 -3.875 4.5 C-4.95394531 5.75296875 -4.95394531 5.75296875 -6.0546875 7.03125 C-6.69664062 7.6809375 -7.33859375 8.330625 -8 9 C-8.66 9 -9.32 9 -10 9 C-9.39375 3.54375 -9.39375 3.54375 -7.6875 1.1875 C-4.98197917 -0.71638503 -3.03279232 -1.51639616 0 0 Z " fill="#EEA829" transform="translate(447,748)"/>
<path d="M0 0 C0.66 0.33 1.32 0.66 2 1 C0.79135813 4.43998071 -0.38557192 6.49924271 -3 9 C-3.33 9.99 -3.66 10.98 -4 12 C-5.98 12.33 -7.96 12.66 -10 13 C-9.61328125 12.56429687 -9.2265625 12.12859375 -8.828125 11.6796875 C-5.56015499 7.94255348 -2.65859411 4.1923984 0 0 Z " fill="#F3AC27" transform="translate(481,516)"/>
<path d="M0 0 C2 2 2 2 2.125 5.625 C2.08375 6.73875 2.0425 7.8525 2 9 C2.66 9.33 3.32 9.66 4 10 C1.53846154 13.81538462 1.53846154 13.81538462 -1.1875 14.75 C-2.0846875 14.87375 -2.0846875 14.87375 -3 15 C-3.20086443 11.28400809 -3.1519437 10.22791555 -1 7 C-0.60612212 4.67612053 -0.26513915 2.34206251 0 0 Z " fill="#F09B13" transform="translate(165,459)"/>
<path d="M0 0 C0.33 0 0.66 0 1 0 C1.33851178 2.68693722 1.670936 5.37440289 2 8.0625 C2.09539063 8.81466797 2.19078125 9.56683594 2.2890625 10.34179688 C2.84571902 14.93421317 3.09829028 19.3742135 3 24 C2.01 24.33 1.02 24.66 0 25 C0 16.75 0 8.5 0 0 Z " fill="#EB9A10" transform="translate(693,676)"/>
<path d="M0 0 C-0.99 0.495 -0.99 0.495 -2 1 C-2 1.66 -2 2.32 -2 3 C2.95 3 7.9 3 13 3 C13 3.33 13 3.66 13 4 C10.45826023 4.02716824 7.91681585 4.04691969 5.375 4.0625 C4.30572266 4.07506836 4.30572266 4.07506836 3.21484375 4.08789062 C-0.97344438 4.10710296 -4.8728462 3.8267327 -9 3 C-9 2.34 -9 1.68 -9 1 C-5.92677456 0.08941469 -3.19902639 -0.08886184 0 0 Z M-8 4 C-6.35 4 -4.7 4 -3 4 C-3 4.33 -3 4.66 -3 5 C-4.65 5 -6.3 5 -8 5 C-8 4.67 -8 4.34 -8 4 Z " fill="#FC9F0E" transform="translate(664,354)"/>
<path d="M0 0 C0.33 0 0.66 0 1 0 C1.98262143 7.20983676 2.6644984 12.55048282 -1 19 C-3.09429461 15.59677126 -3.33706208 12.96047946 -3 9 C-2.34 8.01 -1.68 7.02 -1 6 C-0.60986284 4.0103005 -0.26797351 2.00980131 0 0 Z " fill="#08374B" transform="translate(115,566)"/>
<path d="M0 0 C-2.50248865 1.66832577 -4.41149187 2.62381674 -7.1875 3.625 C-8.26064453 4.01558594 -8.26064453 4.01558594 -9.35546875 4.4140625 C-9.89816406 4.60742188 -10.44085938 4.80078125 -11 5 C-10.34 5.33 -9.68 5.66 -9 6 C-9 6.66 -9 7.32 -9 8 C-10.98 8 -12.96 8 -15 8 C-15 7.34 -15 6.68 -15 6 C-15.99 5.67 -16.98 5.34 -18 5 C-15.94175571 4.15621025 -13.87820214 3.32536378 -11.8125 2.5 C-10.66394531 2.0359375 -9.51539063 1.571875 -8.33203125 1.09375 C-5.28009923 0.09194348 -3.16884928 -0.23870804 0 0 Z " fill="#0C2521" transform="translate(265,253)"/>
<path d="M0 0 C0.66 0.33 1.32 0.66 2 1 C2 1.66 2 2.32 2 3 C2.99 3 3.98 3 5 3 C5 4.98 5 6.96 5 9 C4.34 9 3.68 9 3 9 C2.67 8.34 2.34 7.68 2 7 C1.34 10.3 0.68 13.6 0 17 C-0.33 17 -0.66 17 -1 17 C-1.10477512 11.21408489 -0.99250545 5.70690634 0 0 Z " fill="#EAAC36" transform="translate(168,424)"/>
<path d="M0 0 C7.92 0.33 15.84 0.66 24 1 C24 1.33 24 1.66 24 2 C15.64895793 2.68271293 7.38011029 3.15392039 -1 3 C-0.67 2.01 -0.34 1.02 0 0 Z " fill="#073651" transform="translate(275,250)"/>
<path d="M0 0 C2 3 2 3 2 5 C2.66 5 3.32 5 4 5 C4.33 4.01 4.66 3.02 5 2 C4.67 7.94 4.34 13.88 4 20 C3.67 20 3.34 20 3 20 C2.49550598 17.41747107 1.99625699 14.83411297 1.5 12.25 C1.35691406 11.52039063 1.21382813 10.79078125 1.06640625 10.0390625 C0.41111121 6.60656468 0 3.50830509 0 0 Z " fill="#EBB33E" transform="translate(395,328)"/>
<path d="M0 0 C0.66 0 1.32 0 2 0 C2 0.66 2 1.32 2 2 C3.32 2 4.64 2 6 2 C6 2.66 6 3.32 6 4 C4.68 4.33 3.36 4.66 2 5 C4.31 5.66 6.62 6.32 9 7 C5.45332822 8.25127906 3.27746562 7.72285053 -0.25 6.5625 C-1.14203125 6.27503906 -2.0340625 5.98757813 -2.953125 5.69140625 C-3.62859375 5.46324219 -4.3040625 5.23507812 -5 5 C-4.360625 4.731875 -3.72125 4.46375 -3.0625 4.1875 C-0.66868314 3.11332248 -0.66868314 3.11332248 0 0 Z " fill="#0E2A26" transform="translate(142,791)"/>
<path d="M0 0 C0.33 0 0.66 0 1 0 C2.18396883 8.02350304 3.28545428 15.86455314 3 24 C2.67 24 2.34 24 2 24 C1.46351828 21.5024806 0.94570449 19.0032955 0.4375 16.5 C0.28603516 15.80390625 0.13457031 15.1078125 -0.02148438 14.390625 C-1.03803063 9.28425311 -0.87324306 5.13536317 0 0 Z " fill="#D9AB40" transform="translate(444,665)"/>
<path d="M0 0 C2 3 2 3 2 6 C2.66 6 3.32 6 4 6 C4 6.66 4 7.32 4 8 C4.66 8 5.32 8 6 8 C6.144375 9.0725 6.28875 10.145 6.4375 11.25 C6.83749442 13.91662949 7.27591924 16.41399729 8 19 C4.99711313 16.45503136 3.79704375 13.66909427 2.3125 10.0625 C1.87550781 9.02222656 1.43851562 7.98195313 0.98828125 6.91015625 C0 4 0 4 0 0 Z " fill="#102423" transform="translate(97,749)"/>
<path d="M0 0 C0.33 0 0.66 0 1 0 C1.28100502 7.16562789 0.20443195 13.94546999 -1 21 C-1.33 21 -1.66 21 -2 21 C-3.10720735 16.57117061 -3.22325051 12.53942698 -3 8 C-2.34 7.34 -1.68 6.68 -1 6 C-0.60235737 4.01178687 -0.26224651 2.01055661 0 0 Z " fill="#EBB23B" transform="translate(108,598)"/>
<path d="M0 0 C0.33 0 0.66 0 1 0 C1.36011137 8.50262969 0.2527717 16.61090382 -1 25 C-1.33 25 -1.66 25 -2 25 C-2.19406478 23.35492782 -2.38007935 21.70890406 -2.5625 20.0625 C-2.66691406 19.14597656 -2.77132812 18.22945312 -2.87890625 17.28515625 C-2.91886719 16.53105469 -2.95882812 15.77695312 -3 15 C-2.67 14.67 -2.34 14.34 -2 14 C-1.602507 11.65276034 -1.25631277 9.29671452 -0.9375 6.9375 C-0.67259766 5.00197266 -0.67259766 5.00197266 -0.40234375 3.02734375 C-0.26957031 2.02832031 -0.13679687 1.02929688 0 0 Z " fill="#01354F" transform="translate(156,497)"/>
<path d="M0 0 C5.28 0.33 10.56 0.66 16 1 C16 1.66 16 2.32 16 3 C10.72 3 5.44 3 0 3 C0 2.01 0 1.02 0 0 Z " fill="#F49E0F" transform="translate(819,346)"/>
<path d="M0 0 C7.52811793 0.4343145 16.53219681 2.53219681 22 8 C20.02 8.33 18.04 8.66 16 9 C16.33 8.01 16.66 7.02 17 6 C16.47921875 5.87753906 15.9584375 5.75507813 15.421875 5.62890625 C12.33316046 4.82683683 9.29797002 3.8823707 6.25 2.9375 C5.07953125 2.57527344 3.9090625 2.21304688 2.703125 1.83984375 C1.81109375 1.56269531 0.9190625 1.28554687 0 1 C0 0.67 0 0.34 0 0 Z " fill="#10201D" transform="translate(316,253)"/>
<path d="M0 0 C2.81009519 1.00875212 3.66697708 1.33395417 5 4 C2.03 4 -0.94 4 -4 4 C-4 3.34 -4 2.68 -4 2 C-6.31 2 -8.62 2 -11 2 C-7.28804692 -0.47463539 -4.29996357 -0.43346407 0 0 Z " fill="#0C2927" transform="translate(276,251)"/>
<path d="M0 0 C-0.95421808 1.14926266 -1.91352045 2.29430541 -2.875 3.4375 C-3.40867187 4.07558594 -3.94234375 4.71367188 -4.4921875 5.37109375 C-6 7 -6 7 -8 8 C-8.33 6.02 -8.66 4.04 -9 2 C-5.86501708 0.14223235 -3.62528568 -0.20140476 0 0 Z " fill="#082930" transform="translate(656,571)"/>
<path d="M0 0 C0.66 0 1.32 0 2 0 C2.02693575 2.12493141 2.04636628 4.24995912 2.0625 6.375 C2.07410156 7.55835938 2.08570313 8.74171875 2.09765625 9.9609375 C2 13 2 13 1 15 C0.34 15 -0.32 15 -1 15 C-0.67 10.05 -0.34 5.1 0 0 Z " fill="#FDA20F" transform="translate(155,533)"/>
<path d="M0 0 C0.33 0 0.66 0 1 0 C1.19412181 1.47831221 1.38012131 2.95769316 1.5625 4.4375 C1.66691406 5.26121094 1.77132812 6.08492188 1.87890625 6.93359375 C1.91886719 7.61550781 1.95882812 8.29742187 2 9 C1.67 9.33 1.34 9.66 1 10 C0.60430892 12.01311449 0.25747809 14.03597208 -0.0625 16.0625 C-0.23910156 17.16722656 -0.41570312 18.27195312 -0.59765625 19.41015625 C-0.73042969 20.26480469 -0.86320312 21.11945313 -1 22 C-1.33 22 -1.66 22 -2 22 C-1.85811015 19.45805839 -1.71160845 16.91652007 -1.5625 14.375 C-1.52318359 13.66214844 -1.48386719 12.94929688 -1.44335938 12.21484375 C-1.19690319 8.08196318 -0.76529947 4.07730976 0 0 Z " fill="#212819" transform="translate(127,458)"/>
<path d="M0 0 C2.475 0.99 2.475 0.99 5 2 C5.33 1.34 5.66 0.68 6 0 C8.64 2.31 11.28 4.62 14 7 C13.01 7.495 13.01 7.495 12 8 C10.35 6.68 8.7 5.36 7 4 C6.01 4.495 6.01 4.495 5 5 C4.01 4.67 3.02 4.34 2 4 C2 3.34 2 2.68 2 2 C1.34 2 0.68 2 0 2 C0 1.34 0 0.68 0 0 Z " fill="#EFAA2F" transform="translate(876,369)"/>
<path d="M0 0 C2 1 2 1 2.625 2.5625 C3.16368951 6.06398181 3.05903219 9.45806833 3 13 C3.99 13 4.98 13 6 13 C5.67 13.99 5.34 14.98 5 16 C4.01 16 3.02 16 2 16 C-0.15028304 16.94978897 -0.15028304 16.94978897 -2 18 C-1.505 17.319375 -1.01 16.63875 -0.5 15.9375 C2.15864962 10.73097784 1.08716284 5.57170953 0 0 Z " fill="#EFB53E" transform="translate(931,385)"/>
<path d="M0 0 C0.66 0 1.32 0 2 0 C2.33 0.66 2.66 1.32 3 2 C3.33 1.34 3.66 0.68 4 0 C4.66 0.33 5.32 0.66 6 1 C3.525 5.455 3.525 5.455 1 10 C-2 6 -2 6 -2 4 C-1.34 4 -0.68 4 0 4 C0 2.68 0 1.36 0 0 Z " fill="#0E2C2C" transform="translate(227,318)"/>
<path d="M0 0 C0.33 0 0.66 0 1 0 C1 5.61 1 11.22 1 17 C0.67 17 0.34 17 0 17 C-0.33776684 15.2508503 -0.67003671 13.50063855 -1 11.75 C-1.185625 10.77546875 -1.37125 9.8009375 -1.5625 8.796875 C-2 6 -2 6 -2 2 C-1.34 2 -0.68 2 0 2 C0 1.34 0 0.68 0 0 Z " fill="#E9AE34" transform="translate(488,699)"/>
<path d="M0 0 C4.29 0.33 8.58 0.66 13 1 C13 3.31 13 5.62 13 8 C12.67 8 12.34 8 12 8 C12 6.02 12 4.04 12 2 C7.52116304 2.44703986 7.52116304 2.44703986 4 5 C1.875 4.625 1.875 4.625 0 4 C0.99 3.67 1.98 3.34 3 3 C3 2.34 3 1.68 3 1 C2.01 0.67 1.02 0.34 0 0 Z " fill="#061D1F" transform="translate(466,650)"/>
<path d="M0 0 C-0.95421808 1.14926266 -1.91352045 2.29430541 -2.875 3.4375 C-3.40867187 4.07558594 -3.94234375 4.71367188 -4.4921875 5.37109375 C-6 7 -6 7 -8 8 C-7.74438677 5.6568787 -7.40729228 3.32156597 -7 1 C-4.53721199 -0.231394 -2.7204945 -0.07159196 0 0 Z " fill="#F7AD2B" transform="translate(424,537)"/>
<path d="M0 0 C0.33 0 0.66 0 1 0 C0.88597936 2.27141109 0.75841495 4.54214552 0.625 6.8125 C0.55539063 8.07707031 0.48578125 9.34164063 0.4140625 10.64453125 C0 14 0 14 -2 17 C-2.05398987 14.72942623 -2.09278742 12.45848712 -2.125 10.1875 C-2.14820313 8.92292969 -2.17140625 7.65835937 -2.1953125 6.35546875 C-2 3 -2 3 0 0 Z " fill="#01354F" transform="translate(165,431)"/>
<path d="M0 0 C0.33 0 0.66 0 1 0 C1.06058594 0.9178125 1.12117187 1.835625 1.18359375 2.78125 C1.62311242 9.218508 2.10530999 15.60935705 3 22 C2.34 21.34 1.68 20.68 1 20 C1 19.01 1 18.02 1 17 C0.34 17 -0.32 17 -1 17 C-0.67 11.39 -0.34 5.78 0 0 Z " fill="#111715" transform="translate(128,720)"/>
<path d="M0 0 C2 2 2 2 2.1953125 4.1640625 C2.16050781 5.38222656 2.16050781 5.38222656 2.125 6.625 C2.10695313 7.44226563 2.08890625 8.25953125 2.0703125 9.1015625 C2.04710937 9.72804688 2.02390625 10.35453125 2 11 C1.67 11 1.34 11 1 11 C0.67 12.65 0.34 14.3 0 16 C-0.33 16 -0.66 16 -1 16 C-1.02685095 13.52076199 -1.04676547 11.0418116 -1.0625 8.5625 C-1.07506836 7.50192383 -1.07506836 7.50192383 -1.08789062 6.41992188 C-1.09653588 4.61306441 -1.05220011 2.80612397 -1 1 C-0.67 0.67 -0.34 0.34 0 0 Z " fill="#E09716" transform="translate(700,570)"/>
<path d="M0 0 C0.33 0 0.66 0 1 0 C1 6.6 1 13.2 1 20 C0.67 20 0.34 20 0 20 C-0.39149906 17.60583268 -0.76351777 15.21122464 -1.125 12.8125 C-1.23714844 12.13896484 -1.34929687 11.46542969 -1.46484375 10.77148438 C-2.08120245 6.55969989 -1.98712228 3.79025175 0 0 Z " fill="#0A242C" transform="translate(424,476)"/>
<path d="M0 0 C2.64 0 5.28 0 8 0 C4.2440786 3.42931954 -0.23466745 4.56429083 -5 6 C-4.67 5.34 -4.34 4.68 -4 4 C-3.34 4 -2.68 4 -2 4 C-1.34 2.68 -0.68 1.36 0 0 Z " fill="#0C2529" transform="translate(263,287)"/>
<path d="M0 0 C0.33 0 0.66 0 1 0 C1 1.98 1 3.96 1 6 C-4.94 5.01 -4.94 5.01 -11 4 C-11 3.67 -11 3.34 -11 3 C-7.7 3 -4.4 3 -1 3 C-0.67 2.01 -0.34 1.02 0 0 Z " fill="#E5AB40" transform="translate(479,646)"/>
<path d="M0 0 C1.12894876 0.93274109 2.25300876 1.87140122 3.375 2.8125 C4.00148438 3.33457031 4.62796875 3.85664062 5.2734375 4.39453125 C7 6 7 6 9 9 C6.53199953 7.84826645 4.95216435 6.95216435 3 5 C2.01 5.33 1.02 5.66 0 6 C-0.66 4.68 -1.32 3.36 -2 2 C-1.34 2 -0.68 2 0 2 C0 1.34 0 0.68 0 0 Z " fill="#F1B033" transform="translate(439,596)"/>
<path d="M0 0 C9.41002278 -0.3690205 9.41002278 -0.3690205 14 2 C14 2.99 14 3.98 14 5 C14.66 5 15.32 5 16 5 C15.67 5.99 15.34 6.98 15 8 C14.5875 7.57847656 14.175 7.15695312 13.75 6.72265625 C9.20182339 2.40797978 6.26097416 1.2196833 0 1 C0 0.67 0 0.34 0 0 Z " fill="#CB9E3C" transform="translate(599,498)"/>
<path d="M0 0 C1.83979073 2.7596861 2.48323221 4.29741882 3.1875 7.4375 C3.45626953 8.58025391 3.45626953 8.58025391 3.73046875 9.74609375 C4.0154963 12.12958496 3.72875415 13.73104204 3 16 C0.14206684 13.14206684 0.59200059 10.85334416 0.375 6.875 C0.30023438 5.59367187 0.22546875 4.31234375 0.1484375 2.9921875 C0.09945313 2.00476563 0.05046875 1.01734375 0 0 Z " fill="#D8AA3E" transform="translate(358,334)"/>
<path d="M0 0 C0 1.65 0 3.3 0 5 C0.66 5.33 1.32 5.66 2 6 C0.329375 6.2165625 0.329375 6.2165625 -1.375 6.4375 C-4.82142047 6.78372035 -4.82142047 6.78372035 -7 8 C-5.84316054 5.30070793 -3.38550714 0 0 0 Z " fill="#F5AE2C" transform="translate(463,537)"/>
<path d="M0 0 C-3.01887244 3.48331435 -5.56909529 4.79157144 -10 6 C-9.1875 3.5625 -9.1875 3.5625 -8 1 C-5.07175348 0.02391783 -3.04386724 -0.08226668 0 0 Z " fill="#EEAE31" transform="translate(698,265)"/>
<path d="M0 0 C0.66 0 1.32 0 2 0 C1.65120368 3.25543229 0.97866739 4.01873107 -1.5625 6.25 C-2.366875 6.8275 -3.17125 7.405 -4 8 C-4.33 7.01 -4.66 6.02 -5 5 C-3 2 -3 2 -1 1 C-0.67 0.67 -0.34 0.34 0 0 Z " fill="#1D3331" transform="translate(615,609)"/>
<path d="M0 0 C-0.61454696 3.99455527 -2.70646737 6.74466336 -5 10 C-5.99 9.34 -6.98 8.68 -8 8 C-8 7.34 -8 6.68 -8 6 C-6.68 6 -5.36 6 -4 6 C-4 4.35 -4 2.7 -4 1 C-2 0 -2 0 0 0 Z " fill="#0C2935" transform="translate(803,354)"/>
<path d="M0 0 C0.33 0 0.66 0 1 0 C1.02725341 1.7290774 1.04650987 3.45828176 1.0625 5.1875 C1.07410156 6.15042969 1.08570313 7.11335937 1.09765625 8.10546875 C1.00486622 10.85576513 0.62111685 13.32479591 0 16 C-0.33 16 -0.66 16 -1 16 C-2.0006709 10.03654233 -2.0662997 5.71271093 0 0 Z " fill="#FAB62C" transform="translate(692,734)"/>
<path d="M0 0 C0.33 0.66 0.66 1.32 1 2 C4.63 2 8.26 2 12 2 C12.33 2.66 12.66 3.32 13 4 C11.87851562 3.96519531 11.87851562 3.96519531 10.734375 3.9296875 C9.74953125 3.91164063 8.7646875 3.89359375 7.75 3.875 C6.77546875 3.85179687 5.8009375 3.82859375 4.796875 3.8046875 C1.9803502 4.00137219 0.39050964 4.55431084 -2 6 C-2 4.68 -2 3.36 -2 2 C-1.34 2 -0.68 2 0 2 C0 1.34 0 0.68 0 0 Z " fill="#EAAE3B" transform="translate(463,495)"/>
<path d="M0 0 C0.33 0 0.66 0 1 0 C1 4.62 1 9.24 1 14 C0.01 13.01 -0.98 12.02 -2 11 C-1.85546875 8.30078125 -1.85546875 8.30078125 -1.1875 5.3125 C-0.97480469 4.31863281 -0.76210938 3.32476562 -0.54296875 2.30078125 C-0.36378906 1.54152344 -0.18460938 0.78226562 0 0 Z " fill="#F79C11" transform="translate(707,486)"/>
<path d="M0 0 C1.98 1.65 3.96 3.3 6 5 C5.01 5.495 5.01 5.495 4 6 C4 6.66 4 7.32 4 8 C2.68 7.34 1.36 6.68 0 6 C0 4 0 2 0 0 Z " fill="#F2AE32" transform="translate(112,779)"/>
<path d="M0 0 C0.33 0 0.66 0 1 0 C1 1.65 1 3.3 1 5 C1.66 5 2.32 5 3 5 C2.67 8.3 2.34 11.6 2 15 C1.67 15 1.34 15 1 15 C0.15318867 9.91913204 -0.09038099 5.15171623 0 0 Z " fill="#10292E" transform="translate(137,639)"/>
<path d="M0 0 C0.99 0.33 1.98 0.66 3 1 C3.125 7.75 3.125 7.75 2 10 C1.34 10 0.68 10 0 10 C0 6.7 0 3.4 0 0 Z " fill="#2B3E38" transform="translate(700,596)"/>
<path d="M0 0 C1.64666203 0.1135629 3.29236082 0.24117381 4.9375 0.375 C5.85402344 0.44460938 6.77054687 0.51421875 7.71484375 0.5859375 C8.84599609 0.79089844 8.84599609 0.79089844 10 1 C10.33 1.66 10.66 2.32 11 3 C7.7 3 4.4 3 1 3 C0.67 2.01 0.34 1.02 0 0 Z " fill="#F4A01F" transform="translate(458,574)"/>
<path d="M0 0 C2.8125 0.125 2.8125 0.125 6 1 C7.875 4.0625 7.875 4.0625 9 7 C4.58110387 5.64978174 2.65654657 3.73884332 0 0 Z " fill="#EFAF32" transform="translate(638,262)"/>
<path d="M0 0 C0.33 0 0.66 0 1 0 C2.33333333 4 3.66666667 8 5 12 C3 12 3 12 0.8125 10.5 C-1.25595969 7.64695215 -1.18226015 7.08965375 -0.75 3.75 C-0.5025 2.5125 -0.255 1.275 0 0 Z " fill="#F2B333" transform="translate(406,556)"/>
<path d="M0 0 C-2.96283313 2.38672669 -5.94270509 4.7353371 -9 7 C-8.39816251 4.97954558 -7.72693904 2.97888961 -7 1 C-4.53721199 -0.231394 -2.7204945 -0.07159196 0 0 Z " fill="#E4A934" transform="translate(146,390)"/>
<path d="M0 0 C2.1875 -0.5 2.1875 -0.5 5 0 C7.01271839 2.48053942 8.51887086 5.17640062 10 8 C6.06988668 6.16309921 3.23843209 3.87042844 0 1 C0 0.67 0 0.34 0 0 Z " fill="#122528" transform="translate(875,363)"/>
<path d="M0 0 C0.53625 0.226875 1.0725 0.45375 1.625 0.6875 C-0.025 1.0175 -1.675 1.3475 -3.375 1.6875 C-3.375 2.3475 -3.375 3.0075 -3.375 3.6875 C-2.715 4.0175 -2.055 4.3475 -1.375 4.6875 C-2.695 5.0175 -4.015 5.3475 -5.375 5.6875 C-5.705 5.0275 -6.035 4.3675 -6.375 3.6875 C-7.035 3.3575 -7.695 3.0275 -8.375 2.6875 C-2.95961538 -0.38942308 -2.95961538 -0.38942308 0 0 Z " fill="#E7AC3B" transform="translate(818.375,347.3125)"/>
<path d="M0 0 C3.875 1.75 3.875 1.75 5 4 C3.35 4 1.7 4 0 4 C0 4.66 0 5.32 0 6 C-0.99 5.67 -1.98 5.34 -3 5 C-2.01 3.35 -1.02 1.7 0 0 Z " fill="#F5AA29" transform="translate(333,301)"/>
<path d="M0 0 C0.87324262 2.44507934 1.10151327 3.67700322 0.3125 6.1875 C-1 8 -1 8 -3.125 8.75 C-4.053125 8.87375 -4.053125 8.87375 -5 9 C-3.7508258 5.54074837 -2.32472205 2.85306797 0 0 Z " fill="#0C272E" transform="translate(204,296)"/>
<path d="M0 0 C1.32 0.66 2.64 1.32 4 2 C3.19152271 3.16945792 2.37810888 4.33550461 1.5625 5.5 C1.11003906 6.1496875 0.65757812 6.799375 0.19140625 7.46875 C-0.20175781 7.9740625 -0.59492188 8.479375 -1 9 C-1.33 9 -1.66 9 -2 9 C-2.25 3.375 -2.25 3.375 0 0 Z " fill="#EBAA2E" transform="translate(203,291)"/>
<path d="M0 0 C4 0 4 0 6.25 2 C6.8275 2.66 7.405 3.32 8 4 C5.6875 4.6875 5.6875 4.6875 3 5 C1.1875 3.6875 1.1875 3.6875 0 2 C0 1.34 0 0.68 0 0 Z " fill="#F5AA2C" transform="translate(416,577)"/>
<path d="M0 0 C3.98175544 2.10148204 6.35039045 4.36905358 9 8 C6.625 7.75 6.625 7.75 4 7 C2.6875 4.9375 2.6875 4.9375 2 3 C1.34 3 0.68 3 0 3 C0 2.01 0 1.02 0 0 Z " fill="#1F2F28" transform="translate(613,505)"/>
<path d="M0 0 C0.66 0 1.32 0 2 0 C2.8125 2.1875 2.8125 2.1875 3 5 C0.5625 7.8125 0.5625 7.8125 -2 10 C-2 9.01 -2 8.02 -2 7 C-1.34 7 -0.68 7 0 7 C0 4.69 0 2.38 0 0 Z " fill="#0F2A27" transform="translate(427,490)"/>
<path d="M0 0 C-1.98 0.33 -3.96 0.66 -6 1 C-6 1.66 -6 2.32 -6 3 C-7.875 3.625 -7.875 3.625 -10 4 C-10.66 3.34 -11.32 2.68 -12 2 C-10.75579353 1.4654744 -9.50429064 0.94791389 -8.25 0.4375 C-7.55390625 0.14746094 -6.8578125 -0.14257812 -6.140625 -0.44140625 C-3.69987216 -1.07831803 -2.3596345 -0.80248831 0 0 Z " fill="#ECAD30" transform="translate(439,800)"/>
<path d="M0 0 C0.763125 0.309375 1.52625 0.61875 2.3125 0.9375 C4.18789677 1.67893593 6.08684652 2.36228217 8 3 C8 3.66 8 4.32 8 5 C7.01 5.33 6.02 5.66 5 6 C2.3125 4.1875 2.3125 4.1875 0 2 C0 1.34 0 0.68 0 0 Z " fill="#EEAA28" transform="translate(702,793)"/>
<path d="M0 0 C0.66 0.33 1.32 0.66 2 1 C-0.25 3.5625 -0.25 3.5625 -3 6 C-4.32 5.67 -5.64 5.34 -7 5 C-4.69 3.35 -2.38 1.7 0 0 Z " fill="#EDB137" transform="translate(459,787)"/>
<path d="M0 0 C1.2065625 0.0309375 1.2065625 0.0309375 2.4375 0.0625 C0.79580472 2.08304804 -0.87161778 4.08293058 -2.5625 6.0625 C-2.8925 6.0625 -3.2225 6.0625 -3.5625 6.0625 C-3.605221 4.39638095 -3.60313832 2.72867115 -3.5625 1.0625 C-2.5625 0.0625 -2.5625 0.0625 0 0 Z " fill="#032632" transform="translate(628.5625,595.9375)"/>
<path d="M0 0 C0.66 0 1.32 0 2 0 C4.1875 2.3125 4.1875 2.3125 6 5 C5.67 5.99 5.34 6.98 5 8 C2.5 5.6875 2.5 5.6875 0 3 C0 2.01 0 1.02 0 0 Z " fill="#012434" transform="translate(610,535)"/>
<path d="M0 0 C0.99 0 1.98 0 3 0 C3 2.31 3 4.62 3 7 C2.01 7.33 1.02 7.66 0 8 C0 5.36 0 2.72 0 0 Z " fill="#16323E" transform="translate(453,462)"/>
<path d="M0 0 C2.61724095 2.36797991 4.32861729 4.89600354 6 8 C6 8.66 6 9.32 6 10 C4.125 9.5 4.125 9.5 2 8 C1.01505446 5.34822355 0.54087618 2.79452693 0 0 Z " fill="#112727" transform="translate(379,297)"/>
<path d="M0 0 C1.4391134 0.28359887 2.87625518 0.57721399 4.3125 0.875 C5.11300781 1.03742187 5.91351563 1.19984375 6.73828125 1.3671875 C9 2 9 2 12 4 C7.25 5.125 7.25 5.125 5 4 C5 3.34 5 2.68 5 2 C3.35 1.67 1.7 1.34 0 1 C0 0.67 0 0.34 0 0 Z " fill="#EBB53F" transform="translate(134,795)"/>
<path d="M0 0 C0.66 0.99 1.32 1.98 2 3 C0.60210322 5.79579355 -1.2628997 6.59807058 -4 8 C-4.66 7.67 -5.32 7.34 -6 7 C-4.02 4.69 -2.04 2.38 0 0 Z " fill="#F3B332" transform="translate(804,785)"/>
<path d="M0 0 C0.66 0.33 1.32 0.66 2 1 C1.34 2.65 0.68 4.3 0 6 C-1.65 6 -3.3 6 -5 6 C-5 4.35 -5 2.7 -5 1 C-4.01 2.485 -4.01 2.485 -3 4 C-2.01 2.68 -1.02 1.36 0 0 Z " fill="#D4A236" transform="translate(429,495)"/>
<path d="M0 0 C0.33 0 0.66 0 1 0 C1.33 2.31 1.66 4.62 2 7 C1.01 7.66 0.02 8.32 -1 9 C-1 8.34 -1 7.68 -1 7 C-1.66 6.67 -2.32 6.34 -3 6 C-2.34 6 -1.68 6 -1 6 C-1.0309375 4.7934375 -1.0309375 4.7934375 -1.0625 3.5625 C-1 1 -1 1 0 0 Z " fill="#032B2D" transform="translate(452,464)"/>
<path d="M0 0 C1.67542976 0.28604898 3.34385343 0.61781233 5 1 C3.625 3 3.625 3 2 5 C1.34 5 0.68 5 0 5 C-0.5625 3.0625 -0.5625 3.0625 -1 1 C-0.67 0.67 -0.34 0.34 0 0 Z " fill="#0F2D30" transform="translate(459,782)"/>
<path d="M0 0 C1.32 0.66 2.64 1.32 4 2 C1.03 4.475 1.03 4.475 -2 7 C-1.125 1.125 -1.125 1.125 0 0 Z " fill="#03252E" transform="translate(621,601)"/>
<path d="M0 0 C2.79705825 1.39852912 2.90914993 3.13651858 4 6 C4.99 7.485 4.99 7.485 6 9 C2.34683329 7.75023244 1.21934164 7.32901247 -1 4 C-0.34 4 0.32 4 1 4 C0.67 2.68 0.34 1.36 0 0 Z " fill="#172B26" transform="translate(910,392)"/>
<path d="M0 0 C3.0916909 2.52956528 3.90931332 5.22454612 5 9 C3.68 8.67 2.36 8.34 1 8 C0.67 5.36 0.34 2.72 0 0 Z " fill="#122628" transform="translate(909,342)"/>
<path d="M0 0 C1.53445094 3.06890187 0.54984289 5.70094266 0 9 C-0.66 9 -1.32 9 -2 9 C-2.6875 7.3125 -2.6875 7.3125 -3 5 C-1.5625 2.25 -1.5625 2.25 0 0 Z " fill="#142E30" transform="translate(197,307)"/>
<path d="M0 0 C1.33333333 0 2.66666667 0 4 0 C4 2.64 4 5.28 4 8 C0 3.375 0 3.375 0 0 Z " fill="#F1AF31" transform="translate(385,304)"/>
<path d="M0 0 C1.67542976 0.28604898 3.34385343 0.61781233 5 1 C3.35 2.65 1.7 4.3 0 6 C-0.38218767 4.34385343 -0.71395102 2.67542976 -1 1 C-0.67 0.67 -0.34 0.34 0 0 Z " fill="#122E2E" transform="translate(247,296)"/>
<path d="M0 0 C0 0.99 0 1.98 0 3 C-2.31 3 -4.62 3 -7 3 C-7 2.34 -7 1.68 -7 1 C-4 0 -4 0 0 0 Z " fill="#EFA325" transform="translate(700,262)"/>
<path d="M0 0 C3.93673644 1.31224548 6.22719294 2.91910327 9 6 C2.42696629 4.1011236 2.42696629 4.1011236 0 1 C0 0.67 0 0.34 0 0 Z " fill="#F0B436" transform="translate(690,357)"/>
<path d="M0 0 C1.32 0 2.64 0 4 0 C3.67 1.98 3.34 3.96 3 6 C1.68 5.01 0.36 4.02 -1 3 C-0.67 2.01 -0.34 1.02 0 0 Z " fill="#EFAA2B" transform="translate(372,284)"/>
<path d="M0 0 C0.99 0.66 1.98 1.32 3 2 C1.35 3.32 -0.3 4.64 -2 6 C-2.33 5.01 -2.66 4.02 -3 3 C-2.01 2.01 -1.02 1.02 0 0 Z " fill="#EEAF30" transform="translate(230,264)"/>
</svg>
